<svg width="570" height="571" viewBox="0 0 570 571" fill="none" xmlns="http://www.w3.org/2000/svg">
<path d="M18.3085 225.326C21.4088 194.408 45.6916 164.018 82.2825 153.872C84.7394 153.19 85.654 152.113 86.088 149.532C91.6995 116.003 124.88 94.0838 157.472 102.486C161.572 103.547 163.006 102.4 164.819 98.9512C186.32 58.1673 220.174 35.5896 266.244 33.5589C304.277 31.8848 336.07 46.735 360.686 75.707C379.567 97.9436 388.526 124.094 387.984 153.299C387.914 156.957 388.712 158.724 392.146 160.422C438.782 183.255 453.376 243.462 422.242 284.92C404.865 308.056 381.349 319.302 352.424 319.302H122.57C114.347 319.302 106.116 319.434 97.9 319.155C65.0605 318.039 35.8948 295.299 23.3 264.901C16.7197 249.097 17.3165 235.254 18.3085 225.326Z" fill="url(#paint0_linear_8827_37431)"/>
<path d="M308.316 91.27C300.302 91.3398 243.986 92.6652 206.054 133.379C170.401 171.621 192.746 199.841 162.736 251.29C124.843 316.264 73.9054 297.593 41.2209 359.575C15.6437 408.024 15.6437 478.57 51.1882 512.758C55.4356 516.843 65.1394 525.16 84.2758 531.36C161.007 556.263 203.31 486.871 308.316 475.067C395.348 465.286 422.251 506.659 488.79 476.276C502.176 470.161 544.169 450.234 561.491 406.009C563.708 400.343 577.101 364.86 563.39 325.882C551.059 290.818 529.334 288.547 492.402 248.88C438.147 190.618 454.424 162.677 406.974 126.156C395.604 117.413 359.757 90.8205 308.316 91.27Z" stroke="url(#paint1_linear_8827_37431)" stroke-miterlimit="10"/>
<path d="M307.168 82.8916C289.55 83.2791 234.087 92.3474 199.193 133.813C165.524 173.83 188.629 200.64 159.665 251.74C123.423 315.714 73.5473 298.135 41.3123 359.668C15.9057 408.179 15.7352 478.656 51.2797 512.852C55.527 516.936 65.2309 525.253 84.3672 531.453C160.959 556.294 203.014 487.205 308.415 475.152C394.866 465.278 422.947 505.194 486.805 474.377C499.206 468.409 539.695 448.707 555.406 405.272C559.188 394.817 568.535 360.179 556.328 325.441C544.028 290.33 523 287.586 489.153 249.399C437.193 190.835 454.725 163.576 411.476 122.962C397.052 109.414 358.802 81.7522 307.168 82.8916Z" stroke="url(#paint2_linear_8827_37431)" stroke-miterlimit="10"/>
<path d="M306.032 74.5133C278.804 75.2884 224.262 92.0918 192.345 134.24C160.668 176.093 184.517 201.446 156.692 252.197C122.047 315.163 73.2253 298.701 41.4554 359.73C16.1417 408.311 15.7929 478.71 51.384 512.914C55.6313 516.991 65.3351 525.315 84.4715 531.515C160.901 556.317 202.723 487.554 308.535 475.23C394.413 465.255 423.663 503.768 484.839 472.525C496.217 466.72 534.661 446.994 549.348 404.583C554.634 389.322 560.005 355.56 549.294 325.007C537.032 289.858 516.741 286.579 485.925 249.926C436.32 191.021 456.139 162.941 416.006 119.715C398.66 101.114 357.868 73.0562 306.032 74.5133Z" stroke="url(#paint3_linear_8827_37431)" stroke-miterlimit="10"/>
<path d="M304.885 66.135C268.062 67.3208 214.481 91.8904 185.525 134.666C155.886 178.403 180.433 202.252 153.646 252.647C120.59 314.606 72.8226 299.213 41.51 359.8C16.3823 408.45 15.8863 478.788 51.4773 512.984C55.7247 517.068 65.4285 525.385 84.5649 531.585C160.839 556.341 202.429 487.864 308.613 475.308C393.87 465.232 424.354 502.435 482.825 470.657C493.211 465.022 529.398 445.212 543.28 403.878C550.007 383.788 551.457 350.91 542.249 324.573C530.011 289.377 510.518 285.533 482.685 250.461C435.522 191.076 458.123 161.701 420.486 116.553C400.505 92.5724 356.931 64.4531 304.885 66.135Z" stroke="url(#paint4_linear_8827_37431)" stroke-miterlimit="10"/>
<path d="M303.736 57.7484C257.31 59.4225 204.776 91.735 178.641 135.1C151.118 180.759 176.315 203.058 150.575 253.096C119.17 314.055 72.4566 299.763 41.6012 359.877C16.6208 408.59 15.9775 478.857 51.5685 513.061C55.8159 517.145 65.5197 525.462 84.6638 531.662C160.775 556.356 202.133 488.181 308.704 475.377C393.427 465.208 425.104 501.117 480.831 468.766C490.225 463.34 524.087 443.375 537.163 403.141C545.262 378.199 542.867 346.243 535.155 324.084C522.956 288.842 504.308 284.378 479.397 250.933C434.792 191.044 460.501 160.166 424.987 113.305C402.627 83.8371 355.991 55.8417 303.736 57.7484Z" stroke="url(#paint5_linear_8827_37431)" stroke-miterlimit="10"/>
<path d="M302.588 49.3703C246.566 51.5715 195.133 91.6114 171.788 135.527C146.459 183.162 172.168 203.864 147.529 253.546C117.751 313.505 72.0914 300.306 41.7011 359.955C16.8525 408.729 16.0619 478.927 51.6684 513.131C55.9158 517.215 65.6196 525.532 84.756 531.732C160.712 556.372 201.837 488.499 308.796 475.439C392.945 465.178 425.917 499.916 478.846 466.914C487.255 461.666 518.739 441.569 531.078 402.451C540.479 372.635 534.302 341.609 528.094 323.697C515.925 288.416 498.192 283.285 476.164 251.515C434.194 191.021 463.174 158.631 429.505 110.159C405.029 74.9319 355.037 47.3163 302.588 49.3703Z" stroke="url(#paint6_linear_8827_37431)" stroke-miterlimit="10"/>
<path d="M301.443 40.9917C235.834 43.7742 185.571 91.4949 164.931 135.953C141.888 185.557 168.031 204.662 144.492 253.995C116.334 312.947 71.729 300.848 41.7959 360.032C17.1101 408.869 16.1568 479.028 51.7633 513.216C56.0107 517.301 65.7145 525.617 84.8508 531.817C160.652 556.41 201.545 488.832 308.899 475.524C392.467 465.162 426.818 498.846 476.856 465.015C484.304 459.984 513.369 439.716 524.995 401.707C535.621 367 525.77 336.935 521.042 323.232C508.905 287.904 492.148 282.076 472.903 252.011C433.739 190.835 466.013 157.004 433.995 106.927C407.743 65.9178 354.116 38.7905 301.443 40.9917Z" stroke="url(#paint7_linear_8827_37431)" stroke-miterlimit="10"/>
<path d="M261.643 390.802H198.848L215.977 353.669H244.507L261.643 390.802Z" fill="#CCCCCC"/>
<path d="M326.224 218.466H131.869C129.193 218.466 127.024 220.635 127.024 223.31V354.777C127.024 357.452 129.193 359.621 131.869 359.621H326.224C328.899 359.621 331.068 357.452 331.068 354.777V223.31C331.068 220.635 328.899 218.466 326.224 218.466Z" fill="#E9ECEE"/>
<path d="M324.05 222.132H134.027C132.414 222.132 131.105 223.44 131.105 225.054V330.37C131.105 331.984 132.414 333.292 134.027 333.292H324.05C325.664 333.292 326.972 331.984 326.972 330.37V225.054C326.972 223.44 325.664 222.132 324.05 222.132Z" fill="white"/>
<path d="M229.865 350.917C222.408 350.917 222.401 339.632 229.865 339.632C237.328 339.632 237.328 350.917 229.865 350.917Z" fill="#CCCCCC"/>
<path d="M439.203 434.306C439.203 389.128 439.598 390.941 438.335 390.941C36.5255 390.941 56.9253 390.492 56.9253 391.817V434.306C56.9253 435.298 439.203 435.98 439.203 434.306Z" fill="#121142"/>
<path d="M414.721 426.168C263.079 426.168 268.892 427.579 268.892 422.905C268.892 401.978 267.861 398.878 272.147 398.878C423.781 398.878 417.976 397.467 417.976 402.133C417.953 423.006 418.983 426.168 414.721 426.168Z" fill="#3A396A"/>
<path d="M343.411 418.061C335.838 418.061 335.831 406.598 343.411 406.598C350.991 406.598 350.991 418.061 343.411 418.061Z" fill="#121142"/>
<path d="M253.048 426.168C101.406 426.168 107.219 427.579 107.219 422.905C107.219 401.978 106.188 398.878 110.474 398.878C262.108 398.878 256.303 397.467 256.303 402.133C256.303 423.006 257.334 426.168 253.048 426.168Z" fill="#3A396A"/>
<path d="M181.758 418.061C174.186 418.061 174.178 406.598 181.758 406.598C189.339 406.598 189.346 418.061 181.758 418.061Z" fill="#121142"/>
<path d="M406.971 484.329C400.554 483.027 393.989 481.554 387.075 480.144C376.883 442.165 375.604 436.073 377.426 435.19C378.017 435.019 378.638 434.974 379.247 435.058C386.161 435.112 390.548 435.012 393.353 435.112C397.314 435.244 398.12 435.771 398.469 437.662L406.971 484.329Z" fill="#121142"/>
<path d="M83.6576 531.934C79.0039 530.415 74.4765 528.534 70.1172 526.307C78.1004 482.322 86.1765 438.019 86.2463 437.647C86.8354 434.407 88.7653 435.159 105.46 435.027C110.118 434.988 110.893 431.136 83.6576 531.934Z" fill="#121142"/>
<path d="M144.387 533.801C139.124 535.183 133.771 536.194 128.366 536.824C117.159 501.737 107.439 471.192 107.315 470.889C106.416 468.068 107.982 467.58 118.941 461.751L119.476 461.465L123.049 459.542C125.599 458.155 126.15 456.202 131.683 479.082C131.815 479.609 131.947 480.151 132.079 480.717C134.799 491.971 138.659 508.798 144.387 533.801Z" fill="#121142"/>
<path d="M289.385 238.315V315.155C289.385 318.93 286.548 322.007 283.014 322.007H176.388C172.892 322.007 170.017 318.907 170.017 315.155V238.315C170.015 237.96 170.043 237.604 170.102 237.254C170.318 235.709 171.064 234.288 172.212 233.232C173.36 232.176 174.838 231.551 176.396 231.464H283.014C284.583 231.511 286.083 232.123 287.239 233.186C288.395 234.249 289.129 235.693 289.307 237.254C289.363 237.605 289.389 237.96 289.385 238.315Z" fill="#DEEDFF"/>
<path opacity="0.2" d="M289.374 235.789H264.425V271.023H289.374V235.789Z" fill="#5392F8"/>
<path opacity="0.2" d="M289.37 271.023H264.421V320.325H289.37V271.023Z" fill="#35A4E4"/>
<path d="M289.383 235.789H170.101C170.296 234.583 170.913 233.485 171.844 232.693C172.774 231.9 173.955 231.465 175.177 231.464H284.306C285.53 231.46 286.714 231.894 287.645 232.687C288.576 233.48 289.193 234.581 289.383 235.789V235.789Z" fill="#D3E9E9"/>
<path opacity="0.2" d="M198.741 235.781V322.007H176.388C172.892 322.007 170.017 318.906 170.017 315.155V235.781H198.741Z" fill="#35A4E4"/>
<path d="M203.312 314.125H259.93C259.964 314.126 259.998 314.119 260.029 314.105C260.06 314.091 260.087 314.07 260.108 314.044C260.13 314.017 260.145 313.987 260.154 313.954C260.162 313.921 260.162 313.887 260.155 313.854C260.139 313.78 260.099 313.714 260.041 313.665C259.984 313.616 259.913 313.587 259.837 313.582H203.219C203.185 313.582 203.151 313.589 203.121 313.603C203.09 313.617 203.063 313.638 203.041 313.664C203.019 313.69 203.004 313.72 202.996 313.753C202.988 313.786 202.987 313.82 202.994 313.854C203.008 313.928 203.047 313.996 203.105 314.045C203.163 314.095 203.236 314.123 203.312 314.125V314.125Z" fill="#6A8C8C"/>
<path d="M203.312 307.133H222.185C222.219 307.134 222.252 307.127 222.283 307.113C222.314 307.099 222.341 307.078 222.363 307.052C222.384 307.026 222.4 306.995 222.408 306.962C222.416 306.929 222.417 306.895 222.41 306.862C222.394 306.788 222.355 306.721 222.297 306.672C222.24 306.623 222.167 306.594 222.092 306.59H203.219C203.185 306.59 203.151 306.597 203.121 306.611C203.09 306.625 203.063 306.646 203.041 306.672C203.019 306.698 203.004 306.728 202.996 306.761C202.988 306.794 202.987 306.829 202.994 306.862C203.01 306.936 203.049 307.003 203.107 307.052C203.164 307.101 203.236 307.129 203.312 307.133Z" fill="#6A8C8C"/>
<path d="M203.312 300.142H259.93C259.964 300.143 259.998 300.136 260.029 300.122C260.06 300.108 260.087 300.087 260.108 300.061C260.13 300.035 260.145 300.004 260.154 299.972C260.162 299.939 260.162 299.904 260.155 299.871C260.141 299.797 260.102 299.729 260.044 299.68C259.986 299.63 259.913 299.602 259.837 299.6H203.219C203.185 299.599 203.151 299.606 203.121 299.62C203.09 299.634 203.063 299.655 203.041 299.681C203.019 299.707 203.004 299.738 202.996 299.771C202.988 299.804 202.987 299.838 202.994 299.871C203.011 299.945 203.051 300.011 203.108 300.06C203.165 300.109 203.237 300.138 203.312 300.142V300.142Z" fill="#6A8C8C"/>
<path d="M203.312 293.144H231.625C231.659 293.146 231.692 293.14 231.723 293.127C231.754 293.114 231.781 293.093 231.803 293.068C231.825 293.042 231.84 293.012 231.849 292.98C231.857 292.947 231.857 292.913 231.85 292.88C231.836 292.806 231.797 292.738 231.739 292.689C231.681 292.639 231.608 292.611 231.532 292.609H203.219C203.185 292.608 203.151 292.615 203.121 292.629C203.09 292.643 203.063 292.664 203.041 292.69C203.019 292.716 203.004 292.747 202.996 292.78C202.988 292.813 202.987 292.847 202.994 292.88C203.011 292.953 203.051 293.018 203.109 293.066C203.166 293.113 203.237 293.141 203.312 293.144V293.144Z" fill="#6A8C8C"/>
<path d="M203.313 286.153H259.94C259.973 286.154 260.007 286.147 260.038 286.133C260.068 286.119 260.095 286.098 260.116 286.071C260.137 286.045 260.152 286.014 260.159 285.981C260.166 285.948 260.165 285.914 260.157 285.881C260.143 285.809 260.104 285.743 260.048 285.695C259.992 285.647 259.921 285.62 259.847 285.618H203.22C203.187 285.615 203.154 285.621 203.123 285.634C203.092 285.647 203.065 285.668 203.044 285.693C203.023 285.719 203.008 285.75 203.001 285.782C202.994 285.815 202.995 285.849 203.003 285.881C203.016 285.955 203.054 286.023 203.11 286.072C203.167 286.122 203.238 286.15 203.313 286.153V286.153Z" fill="#6A8C8C"/>
<path d="M203.313 279.161H237.649C237.682 279.162 237.716 279.155 237.747 279.141C237.778 279.127 237.805 279.106 237.827 279.08C237.848 279.054 237.864 279.023 237.872 278.991C237.88 278.958 237.88 278.923 237.873 278.89C237.857 278.817 237.817 278.751 237.76 278.702C237.702 278.653 237.631 278.624 237.556 278.619H203.228C203.194 278.617 203.159 278.622 203.128 278.636C203.096 278.65 203.068 278.67 203.046 278.697C203.024 278.723 203.009 278.755 203.001 278.788C202.994 278.822 202.994 278.857 203.003 278.89C203.017 278.964 203.055 279.03 203.111 279.079C203.167 279.129 203.239 279.158 203.313 279.161V279.161Z" fill="#6A8C8C"/>
<path d="M203.322 272.171H259.94C259.974 272.171 260.008 272.164 260.039 272.15C260.069 272.136 260.097 272.115 260.118 272.089C260.14 272.063 260.155 272.032 260.163 272C260.171 271.967 260.172 271.932 260.165 271.899C260.148 271.826 260.109 271.76 260.051 271.711C259.994 271.662 259.922 271.633 259.847 271.628H203.229C203.195 271.627 203.161 271.634 203.13 271.648C203.1 271.662 203.072 271.683 203.051 271.709C203.029 271.735 203.014 271.766 203.006 271.799C202.997 271.832 202.997 271.866 203.004 271.899C203.018 271.974 203.057 272.042 203.115 272.091C203.173 272.14 203.246 272.168 203.322 272.171V272.171Z" fill="#6A8C8C"/>
<path d="M203.322 265.18H259.94C259.974 265.18 260.008 265.173 260.039 265.159C260.069 265.145 260.097 265.124 260.118 265.098C260.14 265.072 260.155 265.042 260.163 265.009C260.171 264.976 260.172 264.941 260.165 264.908C260.15 264.834 260.11 264.767 260.053 264.718C259.995 264.669 259.923 264.641 259.847 264.637H203.229C203.195 264.636 203.161 264.643 203.13 264.657C203.1 264.671 203.072 264.692 203.051 264.718C203.029 264.744 203.014 264.775 203.006 264.808C202.997 264.841 202.997 264.875 203.004 264.908C203.019 264.982 203.059 265.049 203.116 265.098C203.174 265.147 203.246 265.176 203.322 265.18V265.18Z" fill="#6A8C8C"/>
<path d="M203.322 258.18H247.175C247.208 258.182 247.242 258.177 247.273 258.163C247.304 258.15 247.331 258.13 247.353 258.105C247.375 258.079 247.39 258.049 247.398 258.016C247.406 257.984 247.407 257.95 247.4 257.917C247.384 257.843 247.345 257.776 247.287 257.727C247.23 257.678 247.157 257.649 247.082 257.646H203.229C203.195 257.645 203.161 257.652 203.13 257.666C203.1 257.68 203.072 257.701 203.051 257.727C203.029 257.753 203.014 257.784 203.006 257.817C202.997 257.849 202.997 257.884 203.004 257.917C203.021 257.989 203.061 258.055 203.118 258.102C203.176 258.15 203.247 258.177 203.322 258.18Z" fill="#6A8C8C"/>
<path d="M203.322 251.158H241.106C241.14 251.159 241.174 251.152 241.205 251.138C241.235 251.124 241.263 251.103 241.284 251.077C241.306 251.051 241.321 251.02 241.329 250.988C241.338 250.955 241.338 250.92 241.331 250.887C241.314 250.815 241.274 250.749 241.217 250.702C241.159 250.654 241.088 250.627 241.013 250.624H203.229C203.195 250.622 203.162 250.628 203.131 250.641C203.1 250.654 203.073 250.674 203.051 250.699C203.029 250.725 203.014 250.755 203.005 250.788C202.997 250.82 202.997 250.854 203.004 250.887C203.018 250.962 203.057 251.029 203.115 251.079C203.173 251.128 203.246 251.156 203.322 251.158V251.158Z" fill="#6A8C8C"/>
<path d="M203.319 244.183H259.946C259.979 244.184 260.013 244.177 260.044 244.163C260.074 244.149 260.101 244.128 260.122 244.102C260.143 244.075 260.158 244.044 260.165 244.012C260.172 243.979 260.171 243.944 260.163 243.912C260.149 243.839 260.11 243.773 260.054 243.726C259.998 243.678 259.927 243.65 259.853 243.648H203.234C203.2 243.644 203.166 243.649 203.134 243.662C203.102 243.674 203.074 243.694 203.052 243.72C203.03 243.746 203.014 243.777 203.007 243.811C203 243.844 203 243.879 203.009 243.912C203.022 243.986 203.06 244.053 203.116 244.103C203.173 244.152 203.244 244.181 203.319 244.183V244.183Z" fill="#6A8C8C"/>
<path d="M102.23 416.247L101.92 415.224C120.196 409.636 118.475 399.971 116.321 387.787C114.329 376.393 111.849 362.21 125.877 347.793L126.652 348.569C113.003 362.597 115.329 375.897 117.351 387.632C119.537 399.824 121.382 410.38 102.23 416.247Z" fill="#84534A"/>
<path d="M273.656 378.377L274.276 393.212C276.152 393.631 279.244 395.127 280.43 395.057C286.158 394.7 289.615 392.375 294.707 388.585C297.606 386.423 297.683 385.105 305.403 383.501C309.426 382.664 299.063 371.27 299.063 371.27C287.073 374.471 278.229 378.207 273.656 378.377Z" fill="#F99889"/>
<path d="M294.429 387.818C296.181 386.802 303.792 382.943 307.52 383.384L314.736 384.26C317.231 384.578 319.735 384.865 322.238 385.097C323.013 385.167 324.982 384.485 325.052 383.741C325.122 382.997 323.323 382.594 322.688 382.439C320.27 381.842 317.859 381.307 315.441 380.788L311.814 380.013L310.008 379.618C309.312 379.459 308.609 379.34 307.9 379.261C305.209 379.038 302.5 379.197 299.854 379.734C297.137 380.192 294.516 381.106 292.104 382.439C291.851 382.584 291.63 382.778 291.452 383.009C291.274 383.24 291.144 383.504 291.068 383.785C290.993 384.067 290.973 384.36 291.011 384.649C291.049 384.938 291.144 385.217 291.29 385.469C291.902 386.531 290.081 388.57 291.143 387.965L292.197 388.694L294.429 387.818Z" fill="#F99889"/>
<path d="M290.557 378.222L290.332 378.517C292.476 377.261 294.74 376.223 297.091 375.417C298.842 374.758 300.966 373.618 302.787 373.355L302.059 373.463C305.516 373.533 314.46 378.067 316.227 378.959C317.938 379.965 319.885 380.499 321.869 380.509C322.745 380.509 324.675 380.129 324.667 379.253C324.667 378.625 320.924 376.827 319.327 375.951C317.87 375.122 310.879 370.255 306.012 369.441C305.403 369.339 304.779 369.395 304.198 369.604C302.555 370.193 285.953 375.479 285.953 375.479C284.271 377.773 289.224 380.687 290.557 378.222Z" fill="#F99889"/>
<path d="M297.886 381.23C299.072 380.959 299.8 380.734 300.731 380.455L303.35 379.734L305.924 379.114C306.624 378.953 307.337 378.857 308.055 378.827C307.97 378.827 307.931 378.758 308.055 378.827L308.628 379.075L309.853 379.641L312.341 380.835C313.989 381.656 315.656 382.455 317.34 383.23C317.644 383.355 317.982 383.365 318.293 383.26C318.603 383.154 318.865 382.94 319.03 382.656C319.194 382.372 319.251 382.038 319.188 381.716C319.125 381.394 318.948 381.106 318.689 380.904C317.139 379.843 315.589 378.812 314.038 377.804L311.713 376.308L310.496 375.533L309.838 375.153C309.669 375.059 309.493 374.978 309.311 374.913C309.063 374.843 308.807 374.781 308.535 374.735C307.406 374.65 306.27 374.709 305.156 374.913C304.18 375.068 303.234 375.254 302.304 375.471L299.56 376.138L297.041 376.812L296.809 376.874C296.256 377.031 295.786 377.396 295.497 377.893C295.208 378.39 295.124 378.98 295.262 379.538C295.4 380.096 295.749 380.578 296.235 380.884C296.722 381.189 297.308 381.294 297.871 381.176L297.886 381.23Z" fill="#F99889"/>
<path d="M295.42 378.92C296.8 378.602 297.637 378.339 298.714 378.06L301.76 377.238L304.736 376.517C305.546 376.329 306.371 376.215 307.201 376.176C307.108 376.176 307.054 376.099 307.24 376.176L307.899 376.463L309.325 377.122L312.2 378.509C314.115 379.455 317.153 380.835 319.098 381.757C319.873 382.121 322.323 383.237 322.687 382.447C323.051 381.656 315.998 376.138 314.161 374.991L311.425 373.254L310.015 372.394L309.24 371.952C309.043 371.843 308.839 371.75 308.627 371.673C308.339 371.588 308.047 371.518 307.751 371.464C306.441 371.367 305.123 371.437 303.83 371.673C302.698 371.859 301.605 372.069 300.528 372.317L297.35 373.092L294.428 373.867L294.157 373.936C293.496 374.1 292.927 374.519 292.575 375.102C292.224 375.685 292.118 376.384 292.281 377.044C292.445 377.705 292.864 378.274 293.447 378.626C294.03 378.978 294.728 379.084 295.389 378.92H295.42Z" fill="#F99889"/>
<path d="M323.168 382.981C323.218 382.977 323.266 382.958 323.304 382.926C323.343 382.894 323.371 382.851 323.385 382.803C323.399 382.742 323.388 382.677 323.355 382.623C323.322 382.57 323.268 382.531 323.207 382.516C323.091 382.516 310.969 379.463 307.248 378.835C302.939 378.114 296.932 379.842 294.375 380.579C293.894 380.718 293.437 380.85 293.336 380.858C293.281 380.868 293.231 380.897 293.194 380.94C293.158 380.983 293.139 381.038 293.139 381.094C293.139 381.15 293.158 381.205 293.194 381.248C293.231 381.291 293.281 381.321 293.336 381.331C293.725 381.262 294.109 381.164 294.483 381.036C297.01 380.307 302.939 378.595 307.148 379.308C310.845 379.928 322.951 382.95 323.075 382.974C323.089 382.982 323.105 382.987 323.121 382.988C323.137 382.989 323.153 382.987 323.168 382.981V382.981Z" fill="#964141"/>
<path d="M320.783 379.703C320.817 379.701 320.85 379.692 320.879 379.676C320.909 379.66 320.934 379.637 320.954 379.61C320.99 379.559 321.005 379.495 320.995 379.432C320.985 379.37 320.951 379.314 320.9 379.277C320.466 378.959 310.227 371.611 307.816 371.224C304.259 370.65 291.54 374.657 290.982 374.828C290.921 374.847 290.871 374.89 290.842 374.947C290.813 375.004 290.807 375.07 290.827 375.13C290.836 375.16 290.851 375.188 290.87 375.212C290.89 375.236 290.914 375.255 290.942 375.27C290.969 375.284 290.999 375.293 291.03 375.296C291.061 375.298 291.092 375.295 291.122 375.285C291.253 375.239 304.298 371.139 307.747 371.689C310.072 372.061 320.52 379.587 320.621 379.664C320.668 379.696 320.726 379.71 320.783 379.703V379.703Z" fill="#964141"/>
<path d="M320.24 382.09C320.306 382.081 320.367 382.048 320.41 381.997C320.448 381.947 320.464 381.883 320.455 381.821C320.447 381.759 320.414 381.702 320.364 381.664C320.007 381.385 311.559 374.882 309.149 374.495C305.591 373.929 292.872 377.595 292.299 377.758C292.24 377.777 292.19 377.818 292.16 377.873C292.13 377.928 292.121 377.992 292.136 378.052C292.154 378.112 292.195 378.163 292.25 378.194C292.305 378.224 292.37 378.232 292.431 378.215C292.562 378.215 305.607 374.417 309.079 374.967C311.365 375.332 319.984 381.943 320.077 382.036C320.123 382.073 320.181 382.093 320.24 382.09V382.09Z" fill="#964141"/>
<path d="M239.62 398.01L276.909 393.421L275.754 378.37L238.194 379.555L239.62 398.01Z" fill="#F99889"/>
<path d="M197.887 510.332C198.096 510.697 198.344 511.107 198.615 511.573L197.615 512.053L196.925 512.355C186.237 517.502 175.999 522.431 165.923 526.5L196.708 508.333L197.375 509.48L197.887 510.332Z" fill="#1A5AC1"/>
<path d="M198.035 509.371C197.834 509.038 197.679 508.759 197.547 508.549L197.26 508.053L196.95 507.526L162.677 527.756V527.818C163.762 527.399 164.839 526.965 165.924 526.531C176 522.439 186.247 517.532 196.927 512.386L197.586 512.06L198.586 511.58L199.136 511.316C198.71 510.534 198.33 509.883 198.035 509.371Z" fill="#1A5AC1"/>
<path d="M250.622 489.103C239.499 492.979 229.137 497.342 219.309 501.799C221.701 501.095 223.992 500.081 226.122 498.784C226.181 498.744 226.248 498.716 226.319 498.702C226.389 498.688 226.462 498.689 226.532 498.704C226.603 498.719 226.669 498.748 226.728 498.789C226.787 498.83 226.837 498.883 226.875 498.944C226.913 499.005 226.939 499.073 226.95 499.144C226.961 499.215 226.958 499.288 226.94 499.357C226.923 499.427 226.891 499.492 226.848 499.55C226.804 499.607 226.75 499.655 226.688 499.691C222.946 501.895 218.814 503.358 214.519 504L214.147 504.171C209.024 506.55 204.071 508.945 199.165 511.294L198.615 511.557L197.615 512.038L197.886 510.317L198.033 509.356L198.731 504.884L145.034 498.327C142.221 494.265 137.113 486.895 131.68 479.066C127.502 473.036 123.154 466.727 119.473 461.449L112.993 452.086L116.45 450.04C116.628 449.947 116.806 449.839 116.977 449.738L117.504 449.428L121.922 446.824L138.299 437.174C139.734 438.094 141.282 438.825 142.903 439.352L143.445 439.554L144.011 439.755C164.163 446.731 224.719 457.419 242.607 467.208C249.188 470.82 251.18 479.066 250.622 489.103Z" fill="#2563DC"/>
<path d="M242.9 466.681C231.878 460.651 204.875 454.28 181.049 448.707C166.261 445.243 152.085 441.91 144.203 439.189L143.637 438.988L143.087 438.786C141.526 438.28 140.036 437.577 138.653 436.694L138.328 436.453L136.003 437.825L121.687 446.266L120.486 446.979L117.184 448.924L116.665 449.226L116.138 449.536L112.107 451.908L118.928 461.752L132.104 480.717L144.559 498.691L144.714 498.916L198.062 505.426L197.574 508.527L197.427 509.48L196.923 512.356L197.582 512.03L198.582 511.549L199.132 511.286C204.007 508.961 208.991 506.543 214.114 504.163L214.486 503.993C218.781 503.351 222.913 501.888 226.654 499.683C226.717 499.647 226.771 499.599 226.815 499.542C226.858 499.485 226.889 499.419 226.907 499.35C226.924 499.28 226.928 499.207 226.917 499.136C226.905 499.065 226.88 498.997 226.842 498.936C226.804 498.875 226.754 498.823 226.695 498.781C226.636 498.74 226.57 498.711 226.499 498.696C226.429 498.681 226.356 498.681 226.286 498.694C226.215 498.708 226.148 498.736 226.089 498.776C223.958 500.073 221.668 501.087 219.276 501.791C229.104 497.335 239.466 492.979 250.588 489.096L251.27 488.863C251.797 478.733 249.705 470.409 242.9 466.681Z" fill="#2563DC"/>
<path d="M226.69 499.706C222.948 501.911 218.817 503.374 214.521 504.016C214.188 504.078 213.863 504.124 213.537 504.163C211.997 504.391 210.443 504.51 208.887 504.52H208.553C208.483 504.519 208.414 504.504 208.349 504.476C208.285 504.448 208.227 504.408 208.178 504.357C208.129 504.307 208.09 504.248 208.064 504.182C208.038 504.117 208.025 504.047 208.026 503.977C208.026 503.907 208.04 503.838 208.067 503.774C208.094 503.709 208.134 503.651 208.184 503.602C208.233 503.553 208.292 503.514 208.357 503.488C208.422 503.462 208.491 503.449 208.561 503.45C212.204 503.445 215.825 502.894 219.304 501.815C221.696 501.11 223.986 500.097 226.116 498.8C226.176 498.759 226.243 498.731 226.314 498.718C226.384 498.704 226.457 498.704 226.527 498.719C226.597 498.734 226.664 498.763 226.723 498.805C226.782 498.846 226.832 498.898 226.87 498.959C226.908 499.02 226.933 499.088 226.944 499.16C226.956 499.231 226.952 499.303 226.935 499.373C226.917 499.443 226.886 499.508 226.843 499.565C226.799 499.623 226.745 499.671 226.682 499.706H226.69Z" fill="#121142"/>
<path d="M291.661 391.034C297.032 382.113 315.417 377.471 326.252 390.941L291.661 391.034Z" fill="#CCCCCC"/>
<path d="M274.951 400.746C262.805 403.761 216.96 414.999 203.102 416.573C189.244 418.146 159.411 390.825 149.405 381.083C147.382 387.144 145.212 392.53 141.391 398.01C136.322 405.272 132.865 422.719 135.276 426.641C137.384 429.741 143.027 434.531 143.755 437.151C144.484 439.771 139.942 448.614 119.728 454.443C94.2827 410.783 102.599 425.06 82.5947 390.724C124.386 329.254 96.0964 370.883 129.013 322.464C148.057 322.736 202.397 386.182 207.791 385.245C270.401 374.037 267.138 373.913 269.021 376.006C271.067 378.285 274.749 383.346 276.71 391.903C277.648 395.871 278.655 399.862 274.951 400.746Z" fill="#5A8CFF"/>
<path d="M277.897 394.421C277.75 393.646 277.556 392.794 277.37 391.995L277.2 391.306C277.2 391.174 277.138 391.042 277.099 390.91C276.936 390.244 276.75 389.585 276.572 388.965C275.87 386.557 274.941 384.221 273.797 381.989C273.182 380.783 272.493 379.616 271.735 378.494C271.047 377.486 270.297 376.523 269.488 375.61L269.294 375.378C268.209 374.076 267.976 373.828 254.893 376.153C251.343 376.781 246.84 377.602 241.12 378.649C232.843 380.152 221.992 382.137 207.699 384.694C207.087 384.811 205.421 383.648 203.095 381.672C198.949 378.145 192.694 372.037 186.556 366.077C184.424 364.008 182.207 361.853 179.929 359.66C170.457 350.514 159.963 340.671 150.554 333.307C147.316 330.733 143.925 328.357 140.4 326.192C136.936 324.115 133.789 322.681 131.1 322.146C130.412 321.996 129.711 321.913 129.007 321.898H128.72L127.046 324.363L109.119 350.715C107.22 353.521 105.344 356.265 92.7029 374.866L82.1233 390.43L81.9062 390.748L82.007 390.926L101.562 424.471L107.654 434.926L116.18 449.544L116.482 450.063L119.474 455.194L119.931 455.062C121.579 454.587 123.129 454.094 124.581 453.582C137.223 449.125 142.586 443.506 144.043 439.77C144.121 439.577 144.183 439.383 144.237 439.197C144.476 438.501 144.524 437.755 144.377 437.034C144.155 436.33 143.814 435.67 143.369 435.081C142.179 433.517 140.885 432.036 139.494 430.648C138.169 429.307 136.936 427.877 135.804 426.37L135.758 426.308C133.65 422.665 136.672 406.357 141.579 398.855L141.889 398.397C143.548 396.016 145.002 393.498 146.237 390.872C147.542 388.055 148.681 385.164 149.647 382.214C151.554 384.059 154.871 387.198 158.994 390.872C161.792 393.344 164.955 396.072 168.295 398.793C171.806 401.645 175.534 404.497 179.254 407.078C181.998 408.985 184.734 410.744 187.393 412.24C193.384 415.612 198.941 417.666 203.119 417.208C212.761 416.115 237.632 410.411 256.257 405.947C260.97 404.815 265.279 403.769 268.844 402.893C271.309 402.296 273.409 401.777 275.045 401.343C275.704 401.23 276.319 400.936 276.822 400.494C277.324 400.052 277.694 399.479 277.889 398.839C278.236 397.387 278.239 395.874 277.897 394.421V394.421ZM274.797 400.188L269.061 401.598C265.481 402.482 261.101 403.544 256.304 404.699C237.702 409.163 212.668 414.906 203.026 415.999C199.096 416.441 193.539 414.333 187.222 410.667C185.176 409.481 183.06 408.132 180.882 406.652C177.441 404.327 173.86 401.645 170.279 398.793C167.117 396.266 163.939 393.592 160.847 390.872C157.01 387.492 153.29 384.035 149.833 380.672L149.135 379.997L148.833 380.912C148.833 380.997 148.779 381.082 148.748 381.168C147.663 384.476 146.369 387.712 144.873 390.856C143.716 393.233 142.377 395.516 140.865 397.684C140.617 398.041 140.369 398.459 140.09 398.839C135.649 406.295 132.495 421.463 134.401 426.354C134.46 426.516 134.53 426.674 134.611 426.827V427.276H134.905C135.68 428.322 136.519 429.318 137.416 430.26C137.564 430.408 137.703 430.563 137.843 430.718L138.548 431.493C139.664 432.679 140.873 433.957 141.757 435.097C142.339 435.764 142.796 436.53 143.105 437.36C143.2 437.843 143.171 438.341 143.02 438.809C142.969 439.004 142.907 439.195 142.834 439.383C141.602 442.584 136.634 448.048 124.031 452.474C122.755 452.923 121.393 453.36 119.946 453.784L117.435 449.466L117.125 448.947L109.041 434.926L104.027 426.323L83.3944 390.918L83.3169 390.786C87.2852 384.942 90.6257 380.044 93.3927 375.913L110.119 351.382L127.038 326.495L129.364 323.108C129.966 323.144 130.565 323.229 131.154 323.363C133.727 323.914 136.789 325.34 140.183 327.417C143.091 329.233 145.901 331.202 148.601 333.315C157.901 340.461 168.528 350.367 178.169 359.667C180.758 362.163 183.285 364.612 185.695 366.953C193.446 374.479 198.91 379.757 202.568 382.795C205.258 385.035 206.971 386.066 207.901 385.896C220.496 383.64 230.378 381.834 238.26 380.408L241.322 379.85L243.647 379.424C248.445 378.54 252.273 377.874 255.343 377.3C267.139 375.207 267.596 375.355 268.286 376.192L268.519 376.463C269.123 377.136 269.69 377.843 270.216 378.579C271.675 380.633 272.897 382.846 273.859 385.175V385.175C274.64 387.045 275.282 388.969 275.781 390.934C275.879 391.306 275.972 391.685 276.06 392.073L276.184 392.546C276.262 392.871 276.331 393.189 276.401 393.491C276.401 393.654 276.471 393.817 276.502 393.972C276.952 396.142 277.122 397.801 276.579 398.886C276.399 399.221 276.146 399.512 275.839 399.737C275.532 399.962 275.179 400.116 274.805 400.188H274.797Z" fill="#5A8CFF"/>
<path d="M200.621 393.181C200.54 393.182 200.461 393.163 200.389 393.127C200.325 393.097 200.268 393.055 200.221 393.003C200.174 392.951 200.137 392.889 200.114 392.823C200.091 392.756 200.082 392.686 200.086 392.616C200.091 392.546 200.109 392.477 200.141 392.414C201.402 390.04 202.827 387.756 204.403 385.578C204.506 385.475 204.646 385.417 204.791 385.417C204.936 385.417 205.076 385.475 205.179 385.578C205.281 385.681 205.339 385.82 205.339 385.966C205.339 386.111 205.281 386.25 205.179 386.353C203.686 388.444 202.329 390.629 201.117 392.895C201.071 392.985 201 393.06 200.912 393.111C200.824 393.162 200.723 393.187 200.621 393.181Z" fill="#121142"/>
<path d="M207.522 392.91C207.408 392.911 207.297 392.875 207.205 392.808C207.113 392.741 207.045 392.646 207.011 392.538C206.495 390.852 205.874 389.201 205.15 387.593C205.114 387.533 205.09 387.467 205.08 387.398C205.07 387.328 205.073 387.258 205.091 387.19C205.108 387.122 205.139 387.058 205.181 387.003C205.223 386.947 205.276 386.9 205.336 386.865C205.459 386.793 205.605 386.773 205.743 386.807C205.88 386.842 205.999 386.929 206.073 387.051C206.842 388.724 207.495 390.449 208.026 392.213C208.049 392.28 208.058 392.351 208.052 392.421C208.047 392.492 208.027 392.561 207.995 392.624C207.962 392.687 207.917 392.743 207.863 392.788C207.808 392.833 207.745 392.867 207.677 392.887C207.627 392.903 207.575 392.911 207.522 392.91V392.91Z" fill="#121142"/>
<path d="M149.408 381.648C149.333 381.648 149.258 381.632 149.188 381.601C149.119 381.571 149.057 381.526 149.005 381.47C148.23 380.625 141.681 373.223 141.131 372.394C141.061 372.276 141.038 372.135 141.069 372.001C141.1 371.867 141.181 371.75 141.296 371.675C141.41 371.599 141.55 371.57 141.685 371.594C141.82 371.619 141.941 371.694 142.022 371.805C142.41 372.379 146.89 377.471 149.773 380.757C149.823 380.81 149.863 380.872 149.888 380.94C149.913 381.009 149.924 381.082 149.92 381.155C149.915 381.228 149.896 381.299 149.863 381.364C149.829 381.429 149.783 381.486 149.726 381.532C149.637 381.606 149.525 381.647 149.408 381.648V381.648Z" fill="#121142"/>
<path d="M137.391 431.346C137.313 431.346 137.236 431.328 137.166 431.292C132.02 428.966 122.44 427.525 122.378 427.517C122.239 427.492 122.114 427.415 122.031 427.301C121.947 427.187 121.91 427.045 121.928 426.905C121.955 426.766 122.033 426.643 122.146 426.56C122.26 426.476 122.401 426.439 122.541 426.455C122.936 426.517 132.322 427.951 137.608 430.33C137.72 430.38 137.811 430.467 137.866 430.576C137.922 430.685 137.938 430.81 137.913 430.93C137.888 431.049 137.822 431.157 137.727 431.234C137.632 431.311 137.513 431.353 137.391 431.354V431.346Z" fill="#121142"/>
<path d="M136.25 252.778C136.576 256.847 137.025 261.103 137.304 265.327C137.498 268.001 141.676 272.302 141.738 274.906C141.738 276.317 137.754 276.038 137.731 277.402C137.506 287.672 135.227 296.104 127.376 298.515L114.13 273.457L123.555 256.189L136.25 252.778Z" fill="#F99889"/>
<path d="M140.488 325.503C138.295 341.516 122.662 345.159 118.011 364.644C113.361 384.129 127.382 386.113 125.824 404.412C124.266 422.712 106.634 428.261 106.634 428.261C106.471 428.145 23.3372 366.016 23.3372 365.814C23.6162 365.814 20.3919 358.405 37.6837 349.305C55.0529 340.609 26.0577 320.938 40.2724 303.018C52.6734 287.316 63.6716 309.94 70.5929 263.606C77.5143 217.273 109.819 218.187 120.74 226.101C139.489 227.008 146.317 237.851 141.922 249.578C138.76 258.003 126.111 265.761 125.103 275.798C123.297 293.942 142.674 309.475 140.488 325.503Z" fill="#8A3A25"/>
<path d="M127.402 271.403C130.278 274.503 131.045 278.448 129.107 280.262C127.169 282.076 123.263 281.037 120.38 277.976C117.497 274.914 116.737 270.93 118.675 269.117C120.612 267.303 124.519 268.326 127.402 271.403Z" fill="#F99889"/>
<path d="M136.472 264.861C136.325 265.931 135.573 266.652 134.806 266.466C134.038 266.28 133.542 265.264 133.697 264.195C133.852 263.125 134.596 262.404 135.364 262.59C136.131 262.776 136.619 263.792 136.472 264.861Z" fill="#121142"/>
<path d="M131.191 258.614C131.567 257.761 132.11 256.991 132.788 256.351C133.364 255.786 133.995 255.28 134.672 254.84C135.334 254.424 136.041 254.084 136.78 253.824C137.523 253.543 138.31 253.396 139.105 253.39C139.451 253.435 139.767 253.613 139.984 253.887C140.201 254.16 140.303 254.508 140.267 254.855C140.274 255.1 140.223 255.342 140.118 255.563C140.013 255.784 139.857 255.977 139.663 256.126L139.485 256.243C138.981 256.584 138.33 256.925 137.741 257.25L135.919 258.227C135.292 258.545 134.641 258.824 134.005 259.087C133.369 259.351 132.726 259.552 132.129 259.862H132.075C131.981 259.901 131.879 259.918 131.778 259.912C131.676 259.906 131.577 259.878 131.488 259.829C131.399 259.78 131.321 259.711 131.262 259.629C131.203 259.546 131.163 259.451 131.145 259.351C131.074 259.107 131.09 258.847 131.191 258.614V258.614Z" fill="#340000"/>
<path d="M137.042 284.897H136.964C132.531 284.122 131.539 282.006 131.539 281.921C131.511 281.869 131.493 281.812 131.488 281.754C131.483 281.695 131.49 281.636 131.508 281.58C131.527 281.524 131.557 281.473 131.597 281.43C131.636 281.386 131.684 281.351 131.738 281.327C131.791 281.303 131.849 281.29 131.908 281.289C131.967 281.289 132.025 281.3 132.079 281.323C132.134 281.346 132.182 281.38 132.223 281.423C132.263 281.466 132.294 281.516 132.314 281.572C132.314 281.618 133.236 283.354 137.143 284.06C137.254 284.07 137.356 284.124 137.427 284.21C137.498 284.296 137.533 284.406 137.522 284.517C137.512 284.628 137.458 284.73 137.372 284.802C137.287 284.873 137.176 284.907 137.065 284.897H137.042Z" fill="#C73112"/>
<path d="M214.145 504.186C209.022 506.566 204.07 508.961 199.163 511.309L198.613 511.573L197.613 512.053L196.923 512.355C186.235 517.502 175.997 522.431 165.921 526.5C164.836 526.934 163.758 527.368 162.673 527.787C156.69 530.138 150.575 532.139 144.359 533.778C139.096 535.16 133.742 536.17 128.338 536.801C114.55 538.351 100.133 537.274 84.2522 532.151L83.6321 531.941C78.9861 530.419 74.4666 528.535 70.115 526.307C60.2329 521.245 54.6137 515.998 51.1879 513.534C42.7784 507.449 31.54 491.25 21.7742 470.75C21.7277 470.649 21.6812 470.556 21.6424 470.463C20.5263 468.06 19.4154 465.616 18.3096 463.131C18.3067 463.108 18.3067 463.084 18.3096 463.061C10.1327 444.661 2.51378 424.223 1.81622 406.846C1.69337 404.092 1.77108 401.334 2.04874 398.591C5.21876 368.697 18.0926 356.304 32.4003 352.428C48.1109 348.166 65.5499 354.165 73.7966 358.536C81.2841 362.416 87.7523 368.005 92.6772 374.851C92.8012 375.022 92.9329 375.2 93.0492 375.378C93.1655 375.556 93.305 375.727 93.4212 375.905C96.626 380.618 99.362 385.634 101.59 390.879C103.505 395.212 105.303 399.886 107.109 404.908C107.93 407.197 108.76 409.556 109.597 411.984C109.713 412.326 109.829 412.667 109.953 413.008C111.201 416.666 112.496 420.495 113.829 424.494L114.363 426.044C115.356 428.927 116.389 431.901 117.464 434.965C118.756 438.582 120.138 442.346 121.61 446.258C121.688 446.444 121.758 446.638 121.835 446.831C122.533 448.668 123.261 450.544 124.013 452.443L124.238 453.001C124.308 453.187 124.385 453.373 124.463 453.567C125.083 455.117 125.721 456.69 126.377 458.287C143.893 500.698 176.121 502.318 198.59 503.574C200.566 503.682 204.116 503.83 207.945 503.969L213.448 504.155L214.145 504.186Z" fill="#FEA632"/>
<path d="M97.7148 164.025C120.77 164.025 139.46 145.335 139.46 122.28C139.46 99.2248 120.77 80.5349 97.7148 80.5349C74.6596 80.5349 55.9697 99.2248 55.9697 122.28C55.9697 145.335 74.6596 164.025 97.7148 164.025Z" fill="#5FEBD6"/>
<path d="M111.767 124.14L97.6916 138.518L83.5234 125.551" stroke="#638DF7" stroke-width="2" stroke-linecap="round" stroke-linejoin="round"/>
<path d="M97.6924 102.129V138.518" stroke="#638DF7" stroke-width="2" stroke-linecap="round" stroke-linejoin="round"/>
<path d="M82.4805 139.177H112.91" stroke="#638DF7" stroke-width="2" stroke-linecap="round" stroke-linejoin="round"/>
<path d="M463.551 77.1948H246.246C244.344 77.1948 242.521 77.9502 241.176 79.2947C239.832 80.6392 239.076 82.4628 239.076 84.3642V224.969C239.076 226.87 239.832 228.694 241.176 230.038C242.521 231.383 244.344 232.138 246.246 232.138H463.551C464.493 232.139 465.426 231.955 466.297 231.595C467.167 231.235 467.959 230.707 468.625 230.041C469.292 229.375 469.821 228.585 470.181 227.714C470.542 226.844 470.728 225.911 470.728 224.969V84.3642C470.728 83.422 470.542 82.4891 470.181 81.6188C469.821 80.7485 469.292 79.9578 468.625 79.2919C467.959 78.6261 467.167 78.0982 466.297 77.7383C465.426 77.3785 464.493 77.1938 463.551 77.1948V77.1948Z" fill="#E9ECEE"/>
<path d="M311.977 103.671H247.646V131.643H311.977V103.671Z" fill="#A3BCFC"/>
<path d="M311.977 162.63H247.646V217.66H311.977V162.63Z" fill="white"/>
<path d="M383.81 103.671H319.479V218.11H383.81V103.671Z" fill="#A3BCFC"/>
<path d="M459.317 103.671H394.986V165.901H459.317V103.671Z" fill="#BDD0F9"/>
<path d="M470.748 83.7903V89.3863H238.778V85.4257C238.778 80.7753 241.987 77.0317 247.459 77.0317H463.462C470.259 77.0317 470.748 79.0934 470.748 83.7903Z" fill="#638DF7"/>
<path d="M441.073 85.5505C441.533 85.5505 441.983 85.4142 442.365 85.1587C442.747 84.9032 443.045 84.54 443.221 84.1152C443.397 83.6903 443.444 83.2228 443.354 82.7717C443.264 82.3207 443.043 81.9064 442.717 81.5812C442.392 81.256 441.978 81.0345 441.527 80.9448C441.076 80.8551 440.608 80.9012 440.183 81.0771C439.759 81.2531 439.395 81.5511 439.14 81.9335C438.884 82.3159 438.748 82.7655 438.748 83.2253C438.748 83.842 438.993 84.4334 439.429 84.8695C439.865 85.3056 440.457 85.5505 441.073 85.5505Z" fill="#A1C8B1"/>
<path d="M449.479 85.5505C449.938 85.5505 450.388 85.4142 450.77 85.1587C451.153 84.9032 451.451 84.54 451.627 84.1152C451.803 83.6903 451.849 83.2228 451.759 82.7717C451.669 82.3207 451.448 81.9064 451.123 81.5812C450.798 81.256 450.383 81.0345 449.932 80.9448C449.481 80.8551 449.014 80.9012 448.589 81.0771C448.164 81.2531 447.801 81.5511 447.545 81.9335C447.29 82.3159 447.153 82.7655 447.153 83.2253C447.153 83.842 447.398 84.4334 447.834 84.8695C448.27 85.3056 448.862 85.5505 449.479 85.5505Z" fill="#FEA632"/>
<path d="M460.228 83.2096C460.23 83.6735 460.093 84.1273 459.835 84.5126C459.576 84.898 459.209 85.1973 458.779 85.372C458.459 85.5078 458.113 85.5702 457.767 85.5548C457.42 85.5394 457.081 85.4465 456.774 85.283C456.468 85.1195 456.203 84.8894 455.997 84.6098C455.791 84.3301 455.651 84.0079 455.586 83.6669C455.495 83.2142 455.541 82.7447 455.717 82.3183C455.891 81.89 456.187 81.523 456.57 81.2642C457.019 80.9585 457.561 80.8198 458.102 80.8722C458.643 80.9245 459.148 81.1647 459.531 81.5509C459.751 81.7672 459.927 82.0253 460.046 82.31C460.166 82.5948 460.228 82.9006 460.228 83.2096V83.2096Z" fill="#E45B7E"/>
<path d="M248.121 153.322H311.242C311.482 153.322 311.242 153.128 311.242 152.888C311.242 152.647 311.482 152.446 311.242 152.446H248.121C248.063 152.446 248.006 152.458 247.952 152.48C247.899 152.503 247.851 152.536 247.811 152.578C247.731 152.661 247.687 152.772 247.687 152.888C247.686 152.945 247.696 153.002 247.718 153.055C247.739 153.108 247.771 153.156 247.811 153.197C247.852 153.237 247.9 153.269 247.953 153.291C248.006 153.312 248.063 153.323 248.121 153.322V153.322Z" fill="#638DF7"/>
<path d="M248.121 146.827H311.242C311.482 146.827 311.242 146.633 311.242 146.393C311.242 146.152 311.482 145.951 311.242 145.951H248.121C248.063 145.951 248.005 145.963 247.952 145.986C247.899 146.008 247.851 146.041 247.811 146.083C247.731 146.166 247.687 146.277 247.687 146.393C247.686 146.449 247.697 146.504 247.718 146.556C247.74 146.608 247.771 146.655 247.811 146.695C247.851 146.736 247.899 146.77 247.952 146.792C248.005 146.815 248.063 146.827 248.121 146.827Z" fill="#638DF7"/>
<path d="M395.341 189.316H442.054C442.112 189.316 442.17 189.305 442.223 189.282C442.277 189.26 442.325 189.226 442.364 189.184C442.406 189.146 442.44 189.099 442.463 189.047C442.485 188.995 442.497 188.939 442.496 188.882C442.494 188.765 442.447 188.654 442.365 188.572C442.282 188.489 442.171 188.442 442.054 188.44H395.341C395.225 188.442 395.113 188.489 395.031 188.572C394.949 188.654 394.901 188.765 394.899 188.882C394.899 188.939 394.91 188.995 394.933 189.047C394.956 189.099 394.989 189.146 395.031 189.184C395.071 189.226 395.119 189.26 395.172 189.282C395.226 189.305 395.283 189.316 395.341 189.316V189.316Z" fill="#638DF7"/>
<path d="M395.343 182.805H458.487C458.727 182.805 458.487 182.611 458.487 182.371C458.487 182.131 458.727 181.929 458.487 181.929H395.343C395.285 181.928 395.227 181.94 395.174 181.962C395.12 181.985 395.072 182.019 395.033 182.061C394.991 182.101 394.959 182.149 394.936 182.203C394.914 182.256 394.902 182.313 394.902 182.371C394.902 182.429 394.914 182.486 394.936 182.539C394.959 182.592 394.991 182.64 395.033 182.681C395.116 182.76 395.227 182.805 395.343 182.805V182.805Z" fill="#638DF7"/>
<path d="M395.345 176.302H458.489C458.729 176.302 458.489 176.101 458.489 175.86C458.489 175.62 458.729 175.419 458.489 175.419H395.345C395.236 175.431 395.137 175.484 395.066 175.566C394.99 175.645 394.948 175.751 394.949 175.86C394.949 175.97 394.99 176.075 395.066 176.155C395.139 176.235 395.237 176.287 395.345 176.302V176.302Z" fill="#638DF7"/>
<path d="M395.341 215.428H442.054C442.171 215.426 442.282 215.379 442.365 215.297C442.447 215.214 442.494 215.103 442.496 214.987C442.496 214.929 442.484 214.871 442.462 214.818C442.439 214.765 442.406 214.717 442.364 214.677C442.281 214.597 442.17 214.552 442.054 214.552H395.341C395.226 214.552 395.115 214.597 395.031 214.677C394.99 214.717 394.957 214.765 394.934 214.818C394.911 214.871 394.9 214.929 394.899 214.987C394.901 215.103 394.949 215.214 395.031 215.297C395.113 215.379 395.225 215.426 395.341 215.428V215.428Z" fill="#638DF7"/>
<path d="M395.341 208.917H458.486C458.726 208.917 458.486 208.723 458.486 208.483C458.486 208.243 458.726 208.041 458.486 208.041H395.341C395.225 208.043 395.113 208.09 395.031 208.173C394.949 208.255 394.901 208.366 394.899 208.483C394.9 208.541 394.911 208.598 394.934 208.651C394.957 208.704 394.99 208.753 395.031 208.793C395.115 208.872 395.226 208.917 395.341 208.917Z" fill="#638DF7"/>
<path d="M395.345 202.407H458.489C458.729 202.407 458.489 202.213 458.489 201.973C458.489 201.732 458.729 201.531 458.489 201.531H395.345C395.291 201.535 395.238 201.551 395.19 201.576C395.142 201.601 395.1 201.636 395.066 201.678C394.99 201.757 394.948 201.863 394.949 201.973C394.949 202.082 394.99 202.187 395.066 202.267C395.137 202.348 395.237 202.398 395.345 202.407V202.407Z" fill="#638DF7"/>
<path d="M248.121 140.324H311.242C311.482 140.324 311.242 140.122 311.242 139.882C311.242 139.642 311.482 139.448 311.242 139.448H248.121C248.063 139.448 248.005 139.46 247.952 139.483C247.899 139.505 247.851 139.538 247.811 139.58C247.732 139.661 247.688 139.769 247.687 139.882C247.687 139.997 247.731 140.108 247.811 140.192C247.851 140.234 247.899 140.267 247.952 140.289C248.005 140.312 248.063 140.324 248.121 140.324Z" fill="#638DF7"/>
<path d="M269.322 195.555L268.547 194.617C269.696 193.745 270.452 192.451 270.647 191.022C270.843 189.592 270.462 188.144 269.59 186.994C268.717 185.845 267.424 185.09 265.994 184.895C264.565 184.699 263.116 185.079 261.967 185.952L261.27 184.96C262.395 184.154 263.745 183.723 265.129 183.728C266.501 183.728 267.838 184.152 268.96 184.941C270.081 185.73 270.932 186.846 271.395 188.137C271.858 189.428 271.911 190.83 271.547 192.152C271.183 193.475 270.42 194.652 269.361 195.524L269.322 195.555Z" fill="#E9ECEE"/>
<path d="M265.131 197.074C263.709 197.087 262.321 196.645 261.169 195.812C260.017 194.979 259.162 193.799 258.729 192.445C258.296 191.092 258.307 189.634 258.762 188.288C259.216 186.941 260.09 185.775 261.255 184.96L261.953 185.952C261.384 186.384 260.906 186.924 260.545 187.541C260.185 188.158 259.95 188.84 259.853 189.548C259.756 190.256 259.8 190.976 259.981 191.667C260.163 192.358 260.478 193.006 260.911 193.575C261.343 194.144 261.882 194.622 262.499 194.983C263.116 195.343 263.798 195.578 264.506 195.675C265.214 195.772 265.934 195.728 266.625 195.547C267.316 195.365 267.964 195.05 268.533 194.618L269.308 195.555C268.132 196.527 266.657 197.064 265.131 197.074V197.074Z" fill="#5FEBD6"/>
<path d="M279.766 197.074C278.001 197.072 276.309 196.37 275.061 195.122C273.813 193.874 273.11 192.182 273.108 190.417H274.325C274.325 191.855 274.897 193.235 275.914 194.253C276.932 195.27 278.312 195.842 279.751 195.842C280.837 195.841 281.898 195.515 282.797 194.904L283.479 195.912C282.385 196.662 281.092 197.067 279.766 197.074V197.074Z" fill="#E9ECEE"/>
<path d="M283.494 195.935L282.812 194.927C283.583 194.401 284.205 193.684 284.617 192.846C285.03 192.009 285.22 191.079 285.168 190.147C285.116 189.215 284.824 188.312 284.322 187.526C283.819 186.739 283.121 186.096 282.297 185.657C281.473 185.219 280.549 185.001 279.616 185.024C278.683 185.048 277.771 185.311 276.97 185.79C276.168 186.268 275.503 186.946 275.04 187.756C274.577 188.567 274.331 189.483 274.325 190.416H273.108C273.109 189.268 273.406 188.139 273.972 187.139C274.538 186.14 275.353 185.303 276.337 184.712C277.322 184.12 278.443 183.794 279.591 183.763C280.739 183.733 281.876 184 282.89 184.539C283.905 185.078 284.762 185.871 285.38 186.839C285.997 187.808 286.354 188.919 286.415 190.066C286.475 191.213 286.239 192.357 285.727 193.385C285.215 194.413 284.446 195.292 283.494 195.935V195.935Z" fill="#5FEBD6"/>
<path d="M294.443 197.074C293.402 197.075 292.376 196.831 291.446 196.363C290.516 195.895 289.708 195.215 289.089 194.379C288.469 193.542 288.054 192.572 287.878 191.546C287.701 190.52 287.768 189.467 288.072 188.471C288.376 187.475 288.91 186.565 289.629 185.813C290.349 185.061 291.236 184.488 292.217 184.14C293.198 183.793 294.248 183.68 295.28 183.812C296.313 183.944 297.301 184.315 298.164 184.898L297.489 185.905C296.785 185.443 295.983 185.151 295.146 185.052C294.309 184.953 293.461 185.051 292.669 185.337C291.876 185.623 291.161 186.09 290.58 186.7C289.999 187.31 289.569 188.048 289.322 188.853C289.076 189.659 289.021 190.511 289.161 191.342C289.301 192.173 289.632 192.96 290.129 193.64C290.626 194.32 291.275 194.876 292.024 195.262C292.772 195.648 293.601 195.855 294.443 195.865C295.558 195.867 296.646 195.526 297.56 194.888C298.474 194.251 299.169 193.347 299.551 192.3L300.69 192.726C300.216 194.001 299.363 195.1 298.247 195.877C297.13 196.654 295.803 197.071 294.443 197.074Z" fill="#E9ECEE"/>
<path d="M300.691 192.726L299.552 192.3C299.776 191.697 299.889 191.059 299.885 190.416C299.887 189.526 299.669 188.648 299.252 187.862C298.834 187.075 298.229 186.403 297.49 185.906L298.165 184.898C299.401 185.732 300.321 186.957 300.779 188.376C301.238 189.795 301.206 191.327 300.691 192.726V192.726Z" fill="#5FEBD6"/>
<path d="M307.728 206.476H250.373V213.521H307.728V206.476Z" fill="#A3BCFC"/>
<path d="M275.439 166.374H253.008C251.553 166.374 250.373 167.554 250.373 169.009V170.784C250.373 172.239 251.553 173.419 253.008 173.419H275.439C276.894 173.419 278.074 172.239 278.074 170.784V169.009C278.074 167.554 276.894 166.374 275.439 166.374Z" fill="#BDD0F9"/>
<path d="M304.852 166.374H282.421C280.966 166.374 279.786 167.554 279.786 169.009V170.784C279.786 172.239 280.966 173.419 282.421 173.419H304.852C306.307 173.419 307.487 172.239 307.487 170.784V169.009C307.487 167.554 306.307 166.374 304.852 166.374Z" fill="#BDD0F9"/>
<path d="M353.548 283.912C535.603 283.912 525.302 285.044 526.015 281.417C544.974 185.649 546.322 186.564 541.052 186.564C358.997 186.564 369.297 185.432 368.584 189.06C349.611 284.835 348.246 283.912 353.548 283.912Z" fill="white"/>
<path d="M489.795 285.261C480.594 285.261 469.062 285.261 454.599 285.207C430.494 285.16 397.484 285.091 353.554 285.091H353.398C352.368 285.091 351.228 285.091 350.438 284.129C348.624 281.921 349.756 276.325 357.134 239.951C359.801 226.775 363.118 210.413 367.381 188.843C367.396 188.725 367.396 188.605 367.381 188.486C367.474 186.107 368.931 185.673 377.526 185.425C386.463 185.161 404.336 185.2 439.95 185.278C464.055 185.324 497.065 185.386 540.995 185.386H541.143C542.158 185.386 543.321 185.386 544.111 186.355C545.925 188.564 544.793 194.16 537.415 230.534C534.748 243.71 531.431 260.071 527.168 281.634C527.154 281.752 527.154 281.872 527.168 281.99C527.075 284.378 525.618 284.804 517.023 285.052C511.713 285.261 503.25 285.261 489.795 285.261Z" fill="#F7F7F7"/>
<path d="M512.207 220.768C520.872 220.768 524.608 221.543 524.608 217.908C524.608 209.243 525.383 205.507 521.748 205.507C513.082 205.507 509.347 204.732 509.347 208.367C509.347 217.055 508.556 220.768 512.207 220.768Z" fill="#A3BCFC"/>
<path d="M429.238 220.768C490.329 220.768 490.468 221.946 490.468 217.908C490.468 209.243 491.243 205.507 487.608 205.507C426.517 205.507 426.378 204.337 426.378 208.367V217.908C426.378 218.666 426.679 219.394 427.216 219.93C427.752 220.467 428.479 220.768 429.238 220.768V220.768Z" fill="#A3BCFC"/>
<path opacity="0.2" d="M381.247 220.768C405.181 220.768 407.855 221.722 407.855 217.908C407.855 209.243 408.63 205.507 404.995 205.507C381.061 205.507 378.387 204.554 378.387 208.367C378.387 217.056 377.596 220.768 381.247 220.768Z" fill="#35A4E4"/>
<path d="M507.63 241.943C516.296 241.943 520.031 242.718 520.031 239.083C520.031 230.417 520.807 226.682 517.172 226.682C508.506 226.682 504.77 225.906 504.77 229.542C504.77 238.191 503.98 241.943 507.63 241.943Z" fill="#A3BCFC"/>
<path d="M424.657 241.942C485.747 241.942 485.887 243.113 485.887 239.082C485.887 230.417 486.662 226.681 483.027 226.681C421.936 226.681 421.797 225.511 421.797 229.541C421.797 238.191 421.006 241.942 424.657 241.942Z" fill="#A3BCFC"/>
<path opacity="0.2" d="M376.662 241.943C400.596 241.943 403.277 242.896 403.277 239.083C403.277 230.417 404.052 226.682 400.41 226.682C376.476 226.682 373.802 225.728 373.802 229.542C373.802 238.191 373.011 241.943 376.662 241.943Z" fill="#35A4E4"/>
<path d="M503.777 264.985C512.442 264.985 516.178 265.76 516.178 262.125C516.178 253.46 516.953 249.724 513.318 249.724C504.653 249.724 500.917 248.949 500.917 252.592C500.917 261.234 500.126 264.985 503.777 264.985Z" fill="#A3BCFC"/>
<path d="M420.803 264.985C481.894 264.985 482.033 266.163 482.033 262.125C482.033 253.46 482.809 249.724 479.173 249.724C418.083 249.724 417.943 248.554 417.943 252.592C417.943 261.234 417.153 264.985 420.803 264.985Z" fill="#A3BCFC"/>
<path opacity="0.2" d="M372.811 264.986C396.745 264.986 399.419 265.939 399.419 262.126C399.419 253.46 400.194 249.725 396.559 249.725C372.625 249.725 369.951 248.771 369.951 252.592C369.951 261.234 369.161 264.986 372.811 264.986Z" fill="#35A4E4"/>
<defs>
<linearGradient id="paint0_linear_8827_37431" x1="215.555" y1="527.826" x2="236.8" y2="37.783" gradientUnits="userSpaceOnUse">
<stop stop-color="#090137"/>
<stop offset="0.35" stop-color="#3365D4"/>
<stop offset="0.61" stop-color="#638DF7"/>
<stop offset="0.83" stop-color="#4DB1CE"/>
</linearGradient>
<linearGradient id="paint1_linear_8827_37431" x1="22.7356" y1="313.993" x2="569.87" y2="313.993" gradientUnits="userSpaceOnUse">
<stop offset="0.24" stop-color="#3365D4"/>
<stop offset="0.61" stop-color="#638DF7"/>
<stop offset="1" stop-color="#4DB1CE"/>
</linearGradient>
<linearGradient id="paint2_linear_8827_37431" x1="22.889" y1="309.823" x2="562.784" y2="309.823" gradientUnits="userSpaceOnUse">
<stop offset="0.24" stop-color="#3365D4"/>
<stop offset="0.61" stop-color="#638DF7"/>
<stop offset="1" stop-color="#4DB1CE"/>
</linearGradient>
<linearGradient id="paint3_linear_8827_37431" x1="23.0476" y1="305.661" x2="555.843" y2="305.661" gradientUnits="userSpaceOnUse">
<stop offset="0.24" stop-color="#3365D4"/>
<stop offset="0.61" stop-color="#638DF7"/>
<stop offset="1" stop-color="#4DB1CE"/>
</linearGradient>
<linearGradient id="paint4_linear_8827_37431" x1="23.1952" y1="301.499" x2="549.093" y2="301.499" gradientUnits="userSpaceOnUse">
<stop offset="0.24" stop-color="#3365D4"/>
<stop offset="0.61" stop-color="#638DF7"/>
<stop offset="1" stop-color="#4DB1CE"/>
</linearGradient>
<linearGradient id="paint5_linear_8827_37431" x1="23.3484" y1="297.337" x2="542.588" y2="297.337" gradientUnits="userSpaceOnUse">
<stop offset="0.24" stop-color="#3365D4"/>
<stop offset="0.61" stop-color="#638DF7"/>
<stop offset="1" stop-color="#4DB1CE"/>
</linearGradient>
<linearGradient id="paint6_linear_8827_37431" x1="23.4948" y1="293.175" x2="536.294" y2="293.175" gradientUnits="userSpaceOnUse">
<stop offset="0.24" stop-color="#3365D4"/>
<stop offset="0.61" stop-color="#638DF7"/>
<stop offset="1" stop-color="#4DB1CE"/>
</linearGradient>
<linearGradient id="paint7_linear_8827_37431" x1="23.6517" y1="289.013" x2="530.126" y2="289.013" gradientUnits="userSpaceOnUse">
<stop offset="0.24" stop-color="#3365D4"/>
<stop offset="0.61" stop-color="#638DF7"/>
<stop offset="1" stop-color="#4DB1CE"/>
</linearGradient>
</defs>
</svg>
