<?xml version="1.0" encoding="UTF-8"?>
<!DOCTYPE svg PUBLIC "-//W3C//DTD SVG 1.1//EN" "http://www.w3.org/Graphics/SVG/1.1/DTD/svg11.dtd">
<svg xmlns="http://www.w3.org/2000/svg" version="1.1" width="723px" height="216px" style="shape-rendering:geometricPrecision; text-rendering:geometricPrecision; image-rendering:optimizeQuality; fill-rule:evenodd; clip-rule:evenodd" xmlns:xlink="http://www.w3.org/1999/xlink">
<g><path style="opacity:1" fill="#3a3a3a" d="M 143.5,-0.5 C 149.833,-0.5 156.167,-0.5 162.5,-0.5C 162.5,5.5 162.5,11.5 162.5,17.5C 156.167,17.5 149.833,17.5 143.5,17.5C 143.5,11.5 143.5,5.5 143.5,-0.5 Z"/></g>
<g><path style="opacity:1" fill="#494949" d="M 194.5,28.5 C 194.027,27.0937 193.027,26.427 191.5,26.5C 190.427,25.7494 190.26,24.7494 191,23.5C 193.606,18.5648 196.606,13.8981 200,9.5C 205.629,12.3918 210.796,15.8918 215.5,20C 212.967,25.5679 209.8,30.7345 206,35.5C 201.853,33.5177 198.02,31.1844 194.5,28.5 Z"/></g>
<g><path style="opacity:1" fill="#494949" d="M 110.5,15.5 C 110.427,17.0269 111.094,18.0269 112.5,18.5C 115.037,20.5731 116.204,23.2398 116,26.5C 111.299,30.0164 106.299,33.0164 101,35.5C 97.3906,31.2769 94.5572,26.6102 92.5,21.5C 92.5569,20.391 92.8902,19.391 93.5,18.5C 97.5166,15.1681 101.85,12.1681 106.5,9.5C 108.337,11.1764 109.67,13.1764 110.5,15.5 Z"/></g>
<g><path style="opacity:1" fill="#a6a6a6" d="M 110.5,15.5 C 111.906,15.9731 112.573,16.9731 112.5,18.5C 111.094,18.0269 110.427,17.0269 110.5,15.5 Z"/></g>
<g><path style="opacity:1" fill="#b4b4b4" d="M 93.5,18.5 C 92.8902,19.391 92.5569,20.391 92.5,21.5C 91.1148,20.0527 91.4482,19.0527 93.5,18.5 Z"/></g>
<g><path style="opacity:1" fill="#9179ee" d="M 212.5,51.5 C 212.427,53.0269 213.094,54.0269 214.5,54.5C 216.587,55.5846 217.92,57.2512 218.5,59.5C 218.427,61.0269 219.094,62.0269 220.5,62.5C 220.427,64.0269 221.094,65.0269 222.5,65.5C 230.672,78.5047 234.672,92.8381 234.5,108.5C 232.628,144.855 214.961,170.022 181.5,184C 164.829,189.315 148.163,189.815 131.5,185.5C 129.485,184.076 127.152,183.41 124.5,183.5C 119.738,182.284 115.405,180.284 111.5,177.5C 111.027,176.094 110.027,175.427 108.5,175.5C 105.109,174.471 102.443,172.471 100.5,169.5C 100.027,168.094 99.0269,167.427 97.5,167.5C 93.165,163.355 89.165,158.855 85.5,154C 80.8627,153.171 76.196,152.671 71.5,152.5C 72.3383,140.52 72.6717,128.52 72.5,116.5C 91.2026,116.234 109.869,116.901 128.5,118.5C 138.647,135.603 152.314,139.103 169.5,129C 179.465,120.174 182.299,109.341 178,96.5C 169.345,81.5026 156.845,77.0026 140.5,83C 134.761,86.7422 130.427,91.7422 127.5,98C 109.17,98.4999 90.8364,98.6666 72.5,98.5C 72.7926,86.4498 72.4593,74.4498 71.5,62.5C 73.8333,62.5 76.1667,62.5 78.5,62.5C 81.6981,63.0356 84.3647,62.369 86.5,60.5C 86.8333,59.5 87.5,58.8333 88.5,58.5C 90.2624,57.7377 91.2624,56.4044 91.5,54.5C 93.5,51.8333 95.8333,49.5 98.5,47.5C 101.089,46.5806 103.089,44.914 104.5,42.5C 111.13,36.6836 118.796,32.6836 127.5,30.5C 130.152,30.5905 132.485,29.9238 134.5,28.5C 164.691,22.0085 190.691,29.6751 212.5,51.5 Z"/></g>
<g><path style="opacity:1" fill="#acacac" d="M 191.5,26.5 C 193.027,26.427 194.027,27.0937 194.5,28.5C 192.973,28.573 191.973,27.9063 191.5,26.5 Z"/></g>
<g><path style="opacity:1" fill="#bba9f5" d="M 134.5,28.5 C 132.485,29.9238 130.152,30.5905 127.5,30.5C 129.515,29.0762 131.848,28.4095 134.5,28.5 Z"/></g>
<g><path style="opacity:1" fill="#4e4e4e" d="M 462.5,48.5 C 467.165,47.9431 471.498,46.6098 475.5,44.5C 479.413,43.4042 483.413,43.2375 487.5,44C 488.667,45.1667 489.833,46.3333 491,47.5C 507.952,39.7382 522.619,42.7382 535,56.5C 538.289,64.807 538.289,73.1403 535,81.5C 530.833,89.1718 526.166,96.5052 521,103.5C 513.446,112.388 505.279,120.554 496.5,128C 493.5,128.667 490.5,128.667 487.5,128C 486.584,127.722 485.918,127.222 485.5,126.5C 484.935,124.048 484.268,121.715 483.5,119.5C 483.099,116.252 482.432,113.085 481.5,110C 484.304,93.9605 484.97,77.7939 483.5,61.5C 483.289,59.5759 482.623,59.2426 481.5,60.5C 479.784,62.0248 477.784,63.0248 475.5,63.5C 473.435,63.4828 471.435,63.1495 469.5,62.5C 468.154,60.2082 468.488,58.2082 470.5,56.5C 471.473,56.0133 472.473,55.5133 473.5,55C 471.288,54.2109 469.288,54.3775 467.5,55.5C 463.973,56.7318 460.473,58.0651 457,59.5C 454.833,74.6684 452.666,89.835 450.5,105C 451.054,107.824 451.554,110.657 452,113.5C 455.998,116.49 456.498,119.99 453.5,124C 447.676,125.507 444.176,123.341 443,117.5C 442.889,99.2134 444.389,81.0468 447.5,63C 447.167,62.5 446.833,62 446.5,61.5C 437.761,63.969 429.094,66.6357 420.5,69.5C 419.167,69.5 418.5,70.1667 418.5,71.5C 417.81,76.887 415.977,81.887 413,86.5C 407.156,95.5215 400.822,104.188 394,112.5C 388.13,117.337 382.63,122.504 377.5,128C 373.229,129.008 369.229,128.508 365.5,126.5C 364.407,120.852 363.407,115.185 362.5,109.5C 364.996,93.8914 365.663,78.2248 364.5,62.5C 364.719,61.325 364.386,60.325 363.5,59.5C 362.893,59.6236 362.56,59.9569 362.5,60.5C 358.656,64.079 354.49,64.7457 350,62.5C 349.313,60.4325 349.48,58.4325 350.5,56.5C 356.938,52.1126 363.938,49.1126 371.5,47.5C 375.985,46.6604 380.319,45.6604 384.5,44.5C 397.176,42.2325 407.676,46.2325 416,56.5C 416.483,57.448 416.649,58.448 416.5,59.5C 431.989,56.461 447.323,52.7943 462.5,48.5 Z M 385.5,51.5 C 409.499,52.1647 415.999,63.1647 405,84.5C 398.635,94.5382 391.135,103.705 382.5,112C 379.415,113.96 376.248,115.793 373,117.5C 373.819,96.7702 373.652,76.1035 372.5,55.5C 377.049,54.5368 381.383,53.2035 385.5,51.5 Z M 526.5,81.5 C 525.094,81.9731 524.427,82.9731 524.5,84.5C 521.179,89.129 517.846,93.7957 514.5,98.5C 513.094,98.9731 512.427,99.9731 512.5,101.5C 506.718,107.95 500.051,113.283 492.5,117.5C 492.146,101.107 491.813,84.7737 491.5,68.5C 491.231,64.0685 491.564,59.7352 492.5,55.5C 497.898,53.7755 503.398,52.4421 509,51.5C 528.456,53.4693 534.289,63.4693 526.5,81.5 Z"/></g>
<g><path style="opacity:1" fill="#3a3a3b" d="M 66.5,51.5 C 66.427,53.0269 67.0937,54.0269 68.5,54.5C 70.5848,56.6845 71.5848,59.3511 71.5,62.5C 72.4593,74.4498 72.7926,86.4498 72.5,98.5C 90.8364,98.6666 109.17,98.4999 127.5,98C 130.427,91.7422 134.761,86.7422 140.5,83C 156.845,77.0026 169.345,81.5026 178,96.5C 182.299,109.341 179.465,120.174 169.5,129C 152.314,139.103 138.647,135.603 128.5,118.5C 109.869,116.901 91.2026,116.234 72.5,116.5C 72.6717,128.52 72.3383,140.52 71.5,152.5C 68.9289,164.551 61.4289,170.885 49,171.5C 41.0774,171.256 34.7441,167.923 30,161.5C 22.9934,163.337 16.4934,162.337 10.5,158.5C 10.0269,157.094 9.02694,156.427 7.5,156.5C 3.02726,153.211 0.360589,148.878 -0.5,143.5C -0.5,119.167 -0.5,94.8333 -0.5,70.5C 0.56651,68.036 1.89984,65.7026 3.5,63.5C 5.26242,62.7377 6.26242,61.4044 6.5,59.5C 8.79956,56.6761 11.7996,54.8428 15.5,54C 20.5,53.6667 25.5,53.3333 30.5,53C 37.4764,45.1206 46.1431,42.4539 56.5,45C 60.7197,45.9346 64.053,48.1013 66.5,51.5 Z M 47.5,63.5 C 49.1439,63.2865 50.6439,63.6198 52,64.5C 52.3058,79.0079 52.8058,93.5079 53.5,108C 52.8097,122.159 52.3097,136.325 52,150.5C 50.3333,151.833 48.6667,151.833 47,150.5C 45.422,124.86 45.0886,99.1929 46,73.5C 46.2485,70.0806 46.7485,66.7473 47.5,63.5 Z M 20.5,72.5 C 22.1439,72.2865 23.6439,72.6198 25,73.5C 25.3398,84.8412 25.8398,96.1745 26.5,107.5C 25.8398,118.825 25.3398,130.159 25,141.5C 23.3333,142.833 21.6667,142.833 20,141.5C 17.8484,118.422 18.015,95.4225 20.5,72.5 Z M 149.5,99.5 C 160.593,99.7508 163.26,104.584 157.5,114C 150.857,116.679 146.523,114.512 144.5,107.5C 145.371,104.304 147.038,101.637 149.5,99.5 Z"/></g>
<g><path style="opacity:1" fill="#bfadf5" d="M 104.5,42.5 C 103.089,44.914 101.089,46.5806 98.5,47.5C 99.9108,45.086 101.911,43.4194 104.5,42.5 Z"/></g>
<g><path style="opacity:1" fill="#838384" d="M 384.5,44.5 C 380.319,45.6604 375.985,46.6604 371.5,47.5C 375.405,45.1236 379.739,44.1236 384.5,44.5 Z"/></g>
<g><path style="opacity:1" fill="#474747" d="M 245.5,51.5 C 245.427,53.0269 246.094,54.0269 247.5,54.5C 250.037,56.5731 251.204,59.2398 251,62.5C 247.345,65.7444 243.178,68.0778 238.5,69.5C 236.012,69.3167 234.012,68.3167 232.5,66.5C 230.076,63.9922 228.41,60.9922 227.5,57.5C 227.557,56.391 227.89,55.391 228.5,54.5C 232.517,51.1681 236.85,48.1681 241.5,45.5C 243.337,47.1764 244.67,49.1764 245.5,51.5 Z"/></g>
<g><path style="opacity:1" fill="#828282" d="M 475.5,44.5 C 471.498,46.6098 467.165,47.9431 462.5,48.5C 466.502,46.3902 470.835,45.0569 475.5,44.5 Z"/></g>
<g><path style="opacity:1" fill="#ababac" d="M 307.5,52.5 C 305.708,52.366 304.042,52.6993 302.5,53.5C 304.042,52.6993 305.708,52.366 307.5,52.5 Z"/></g>
<g><path style="opacity:1" fill="#d3c7f9" d="M 212.5,51.5 C 213.906,51.9731 214.573,52.9731 214.5,54.5C 213.094,54.0269 212.427,53.0269 212.5,51.5 Z"/></g>
<g><path style="opacity:1" fill="#505050" d="M 307.5,52.5 C 309.478,53.3171 310.478,54.8171 310.5,57C 307.499,74.0035 304.499,91.0035 301.5,108C 303.401,119.426 309.734,122.759 320.5,118C 330.68,112.413 340.346,106.079 349.5,99C 351.677,97.7978 354.011,97.2978 356.5,97.5C 357.125,100.97 356.125,103.804 353.5,106C 343.36,114.574 332.36,121.907 320.5,128C 309.442,131.757 300.608,128.924 294,119.5C 293.144,115.376 292.644,111.21 292.5,107C 295.913,89.182 299.246,71.3487 302.5,53.5C 304.042,52.6993 305.708,52.366 307.5,52.5 Z"/></g>
<g><path style="opacity:1" fill="#a5a5a6" d="M 66.5,51.5 C 67.9063,51.9731 68.573,52.9731 68.5,54.5C 67.0937,54.0269 66.427,53.0269 66.5,51.5 Z"/></g>
<g><path style="opacity:1" fill="#a7a7a8" d="M 245.5,51.5 C 246.906,51.9731 247.573,52.9731 247.5,54.5C 246.094,54.0269 245.427,53.0269 245.5,51.5 Z"/></g>
<g><path style="opacity:1" fill="#b2b2b3" d="M 228.5,54.5 C 227.89,55.391 227.557,56.391 227.5,57.5C 226.115,56.0527 226.448,55.0527 228.5,54.5 Z"/></g>
<g><path style="opacity:1" fill="#aaaaab" d="M 467.5,55.5 C 469.288,54.3775 471.288,54.2109 473.5,55C 472.473,55.5133 471.473,56.0133 470.5,56.5C 469.791,55.596 468.791,55.2627 467.5,55.5 Z"/></g>
<g><path style="opacity:1" fill="#c9baf7" d="M 91.5,54.5 C 91.2624,56.4044 90.2624,57.7377 88.5,58.5C 88.7376,56.5956 89.7376,55.2623 91.5,54.5 Z"/></g>
<g><path style="opacity:1" fill="#959595" d="M 492.5,55.5 C 491.564,59.7352 491.231,64.0685 491.5,68.5C 490.837,66.5274 490.504,64.3608 490.5,62C 490.533,59.3897 491.2,57.223 492.5,55.5 Z"/></g>
<g><path style="opacity:1" fill="#d4d4d4" d="M 362.5,60.5 C 362.56,59.9569 362.893,59.6236 363.5,59.5C 364.386,60.325 364.719,61.325 364.5,62.5C 363.833,61.8333 363.167,61.1667 362.5,60.5 Z"/></g>
<g><path style="opacity:1" fill="#eeeeee" d="M 481.5,60.5 C 482.623,59.2426 483.289,59.5759 483.5,61.5C 482.833,61.1667 482.167,60.8333 481.5,60.5 Z"/></g>
<g><path style="opacity:1" fill="#9b9b9c" d="M 6.5,59.5 C 6.26242,61.4044 5.26242,62.7377 3.5,63.5C 3.73758,61.5956 4.73758,60.2623 6.5,59.5 Z"/></g>
<g><path style="opacity:1" fill="#ddd5fa" d="M 86.5,60.5 C 84.3647,62.369 81.6981,63.0356 78.5,62.5C 81.0529,61.7451 83.7196,61.0784 86.5,60.5 Z"/></g>
<g><path style="opacity:1" fill="#c8baf6" d="M 218.5,59.5 C 219.906,59.9731 220.573,60.9731 220.5,62.5C 219.094,62.0269 218.427,61.0269 218.5,59.5 Z"/></g>
<g><path style="opacity:1" fill="#bfbfbf" d="M 469.5,62.5 C 471.435,63.1495 473.435,63.4828 475.5,63.5C 474.903,64.1386 474.07,64.472 473,64.5C 471.301,64.6134 470.134,63.9468 469.5,62.5 Z"/></g>
<g><path style="opacity:1" fill="#cfc2f8" d="M 220.5,62.5 C 221.906,62.9731 222.573,63.9731 222.5,65.5C 221.094,65.0269 220.427,64.0269 220.5,62.5 Z"/></g>
<g><path style="opacity:1" fill="#515152" d="M 722.5,74.5 C 722.5,76.1667 722.5,77.8333 722.5,79.5C 711.871,80.93 701.538,83.5967 691.5,87.5C 690.223,88.6936 689.556,90.3603 689.5,92.5C 689.507,94.3693 689.84,96.036 690.5,97.5C 693.09,102.091 695.59,106.758 698,111.5C 699.725,118.144 697.558,120.311 691.5,118C 689.595,116.185 687.928,114.185 686.5,112C 680.937,111.564 675.437,112.064 670,113.5C 663.89,112.861 658.39,110.695 653.5,107C 649.282,101 648.448,94.5 651,87.5C 655.79,78.0476 662.623,70.5476 671.5,65C 674.817,64.5017 678.15,64.335 681.5,64.5C 682.014,66.5116 682.18,68.5116 682,70.5C 669.872,74.6277 661.706,82.7943 657.5,95C 659.066,101.798 663.399,105.298 670.5,105.5C 675.132,104.685 679.799,104.352 684.5,104.5C 684.097,99.8038 683.43,95.1372 682.5,90.5C 677.316,92.6311 671.983,93.7978 666.5,94C 665.202,91.5008 665.536,89.1675 667.5,87C 683.931,80.1424 700.931,75.3091 718.5,72.5C 719.86,73.1799 721.193,73.8466 722.5,74.5 Z"/></g>
<g><path style="opacity:1" fill="#4f4f4f" d="M 620.5,115.5 C 620.027,114.094 619.027,113.427 617.5,113.5C 612.434,108.926 608.267,103.593 605,97.5C 600.814,105.589 600.981,113.423 605.5,121C 602.06,124.825 598.226,125.325 594,122.5C 591.857,115.634 592.024,108.968 594.5,102.5C 595.924,100.485 596.59,98.1522 596.5,95.5C 597.747,87.1889 598.914,78.8556 600,70.5C 602.064,69.4086 604.231,69.2419 606.5,70C 609.11,79.2309 612.277,88.3976 616,97.5C 619.287,103.121 623.621,107.788 629,111.5C 630.117,110.051 630.784,108.384 631,106.5C 631.167,103.167 631.333,99.8333 631.5,96.5C 631.078,86.6661 630.078,77.1661 628.5,68C 639.508,66.1455 642.508,69.9788 637.5,79.5C 639.872,91.1413 640.039,102.808 638,114.5C 632.339,120.65 626.506,120.983 620.5,115.5 Z"/></g>
<g><path style="opacity:1" fill="#8f8f8f" d="M 232.5,66.5 C 234.012,68.3167 236.012,69.3167 238.5,69.5C 237.828,70.2674 236.995,70.9341 236,71.5C 234.331,70.1537 233.164,68.487 232.5,66.5 Z"/></g>
<g><path style="opacity:1" fill="#e2e2e2" d="M 420.5,69.5 C 420.167,70.5 419.5,71.1667 418.5,71.5C 418.5,70.1667 419.167,69.5 420.5,69.5 Z"/></g>
<g><path style="opacity:1" fill="#505050" d="M 563.5,95.5 C 564.906,95.0269 565.573,94.0269 565.5,92.5C 567.293,87.9547 568.793,83.288 570,78.5C 572.21,75.7104 575.044,74.877 578.5,76C 580.366,82.4211 581.033,88.9211 580.5,95.5C 580.68,96.5539 581.013,97.5539 581.5,98.5C 589.075,101.447 589.408,104.947 582.5,109C 580.167,109.667 577.833,109.667 575.5,109C 573.168,105.847 571.501,102.347 570.5,98.5C 566.648,103.185 562.315,107.352 557.5,111C 553.041,113.175 548.874,112.675 545,109.5C 542.348,103.267 542.014,96.9334 544,90.5C 545.804,85.4203 547.804,80.4203 550,75.5C 552.608,74.0268 554.775,74.5268 556.5,77C 553.316,84.5574 551.816,92.3908 552,100.5C 552.689,101.357 553.522,102.023 554.5,102.5C 557.805,100.525 560.805,98.1915 563.5,95.5 Z"/></g>
<g><path style="opacity:1" fill="#a7a7a7" d="M 526.5,81.5 C 526.573,83.0269 525.906,84.0269 524.5,84.5C 524.427,82.9731 525.094,81.9731 526.5,81.5 Z"/></g>
<g><path style="opacity:1" fill="#b4b4b5" d="M 691.5,87.5 C 690.586,90.728 690.253,94.0613 690.5,97.5C 689.84,96.036 689.507,94.3693 689.5,92.5C 689.556,90.3603 690.223,88.6936 691.5,87.5 Z"/></g>
<g><path style="opacity:1" fill="#acacad" d="M 565.5,92.5 C 565.573,94.0269 564.906,95.0269 563.5,95.5C 563.427,93.9731 564.094,92.9731 565.5,92.5 Z"/></g>
<g><path style="opacity:1" fill="#424242" d="M 241.5,98.5 C 248.167,98.5 254.833,98.5 261.5,98.5C 261.5,104.5 261.5,110.5 261.5,116.5C 254.833,116.5 248.167,116.5 241.5,116.5C 241.5,110.5 241.5,104.5 241.5,98.5 Z"/></g>
<g><path style="opacity:1" fill="#909090" d="M 596.5,95.5 C 596.59,98.1522 595.924,100.485 594.5,102.5C 594.41,99.8478 595.076,97.5145 596.5,95.5 Z"/></g>
<g><path style="opacity:1" fill="#a7a7a7" d="M 514.5,98.5 C 514.573,100.027 513.906,101.027 512.5,101.5C 512.427,99.9731 513.094,98.9731 514.5,98.5 Z"/></g>
<g><path style="opacity:1" fill="#acacac" d="M 617.5,113.5 C 619.027,113.427 620.027,114.094 620.5,115.5C 618.973,115.573 617.973,114.906 617.5,113.5 Z"/></g>
<g><path style="opacity:1" fill="#c4c4c5" d="M 483.5,119.5 C 484.268,121.715 484.935,124.048 485.5,126.5C 483.656,124.721 482.99,122.388 483.5,119.5 Z"/></g>
<g><path style="opacity:1" fill="#494949" d="M 230.5,163.5 C 230.027,162.094 229.027,161.427 227.5,161.5C 226.427,160.749 226.26,159.749 227,158.5C 229.606,153.565 232.606,148.898 236,144.5C 241.629,147.392 246.796,150.892 251.5,155C 248.967,160.568 245.8,165.735 242,170.5C 237.853,168.518 234.02,166.184 230.5,163.5 Z"/></g>
<g><path style="opacity:1" fill="#aaaaaa" d="M 7.5,156.5 C 9.02694,156.427 10.0269,157.094 10.5,158.5C 8.97306,158.573 7.97306,157.906 7.5,156.5 Z"/></g>
<g><path style="opacity:1" fill="#ababac" d="M 227.5,161.5 C 229.027,161.427 230.027,162.094 230.5,163.5C 228.973,163.573 227.973,162.906 227.5,161.5 Z"/></g>
<g><path style="opacity:1" fill="#d3c7f9" d="M 97.5,167.5 C 99.0269,167.427 100.027,168.094 100.5,169.5C 98.9731,169.573 97.9731,168.906 97.5,167.5 Z"/></g>
<g><path style="opacity:1" fill="#d8cef9" d="M 108.5,175.5 C 110.027,175.427 111.027,176.094 111.5,177.5C 109.973,177.573 108.973,176.906 108.5,175.5 Z"/></g>
<g><path style="opacity:1" fill="#494949" d="M 95.5,199.5 C 95.0269,198.094 94.0269,197.427 92.5,197.5C 93.5875,191.323 96.4208,185.656 101,180.5C 104.914,182.54 108.748,184.707 112.5,187C 114.327,187.899 115.66,189.233 116.5,191C 113.967,196.568 110.8,201.735 107,206.5C 102.853,204.518 99.0195,202.184 95.5,199.5 Z"/></g>
<g><path style="opacity:1" fill="#474747" d="M 209.5,186.5 C 209.427,188.027 210.094,189.027 211.5,189.5C 214.037,191.573 215.204,194.24 215,197.5C 211.345,200.744 207.178,203.078 202.5,204.5C 200.012,204.317 198.012,203.317 196.5,201.5C 194.076,198.992 192.41,195.992 191.5,192.5C 191.557,191.391 191.89,190.391 192.5,189.5C 196.517,186.168 200.85,183.168 205.5,180.5C 207.337,182.176 208.67,184.176 209.5,186.5 Z"/></g>
<g><path style="opacity:1" fill="#c7b8f7" d="M 124.5,183.5 C 127.152,183.41 129.485,184.076 131.5,185.5C 128.848,185.59 126.515,184.924 124.5,183.5 Z"/></g>
<g><path style="opacity:1" fill="#a7a7a7" d="M 209.5,186.5 C 210.906,186.973 211.573,187.973 211.5,189.5C 210.094,189.027 209.427,188.027 209.5,186.5 Z"/></g>
<g><path style="opacity:1" fill="#b4b4b4" d="M 192.5,189.5 C 191.89,190.391 191.557,191.391 191.5,192.5C 190.115,191.053 190.448,190.053 192.5,189.5 Z"/></g>
<g><path style="opacity:1" fill="#3a3a3a" d="M 162.5,215.5 C 156.167,215.5 149.833,215.5 143.5,215.5C 143.5,209.5 143.5,203.5 143.5,197.5C 149.833,197.5 156.167,197.5 162.5,197.5C 162.5,203.5 162.5,209.5 162.5,215.5 Z"/></g>
<g><path style="opacity:1" fill="#acacad" d="M 92.5,197.5 C 94.0269,197.427 95.0269,198.094 95.5,199.5C 93.9731,199.573 92.9731,198.906 92.5,197.5 Z"/></g>
<g><path style="opacity:1" fill="#8f8f8f" d="M 196.5,201.5 C 198.012,203.317 200.012,204.317 202.5,204.5C 201.828,205.267 200.995,205.934 200,206.5C 198.331,205.154 197.164,203.487 196.5,201.5 Z"/></g>
</svg>
