<?xml version="1.0" encoding="UTF-8"?>
<!DOCTYPE svg PUBLIC "-//W3C//DTD SVG 1.1//EN" "http://www.w3.org/Graphics/SVG/1.1/DTD/svg11.dtd">
<svg xmlns="http://www.w3.org/2000/svg" version="1.1" width="723px" height="216px" style="shape-rendering:geometricPrecision; text-rendering:geometricPrecision; image-rendering:optimizeQuality; fill-rule:evenodd; clip-rule:evenodd" xmlns:xlink="http://www.w3.org/1999/xlink">
<g><path style="opacity:1" fill="#fefffe" d="M 143.5,-0.5 C 149.833,-0.5 156.167,-0.5 162.5,-0.5C 162.5,5.5 162.5,11.5 162.5,17.5C 156.167,17.5 149.833,17.5 143.5,17.5C 143.5,11.5 143.5,5.5 143.5,-0.5 Z"/></g>
<g><path style="opacity:1" fill="#fefffe" d="M 105.5,9.5 C 110.393,13.5964 114.059,18.7631 116.5,25C 116.241,26.2613 115.574,27.2613 114.5,28C 110.049,30.641 105.549,33.141 101,35.5C 97.0242,30.8514 93.8575,25.6847 91.5,20C 96.025,16.2454 100.692,12.7454 105.5,9.5 Z"/></g>
<g><path style="opacity:1" fill="#fefffe" d="M 199.5,9.5 C 205.348,12.2545 210.681,15.7545 215.5,20C 212.967,25.5679 209.8,30.7345 206,35.5C 201.419,33.1268 196.919,30.6268 192.5,28C 191.426,27.2613 190.759,26.2613 190.5,25C 193.126,19.5762 196.126,14.4096 199.5,9.5 Z"/></g>
<g><path style="opacity:1" fill="#9179ee" d="M 212.5,51.5 C 212.427,53.0269 213.094,54.0269 214.5,54.5C 216.587,55.5846 217.92,57.2512 218.5,59.5C 218.427,61.0269 219.094,62.0269 220.5,62.5C 220.427,64.0269 221.094,65.0269 222.5,65.5C 230.672,78.5047 234.672,92.8381 234.5,108.5C 232.628,144.855 214.961,170.022 181.5,184C 164.829,189.315 148.163,189.815 131.5,185.5C 129.485,184.076 127.152,183.41 124.5,183.5C 119.738,182.284 115.405,180.284 111.5,177.5C 111.027,176.094 110.027,175.427 108.5,175.5C 105.109,174.471 102.443,172.471 100.5,169.5C 100.027,168.094 99.0269,167.427 97.5,167.5C 93.165,163.355 89.165,158.855 85.5,154C 80.8627,153.171 76.196,152.671 71.5,152.5C 72.2771,140.516 72.6105,128.516 72.5,116.5C 90.8498,116.381 109.183,116.881 127.5,118C 137.959,135.377 151.959,139.044 169.5,129C 179.465,120.174 182.299,109.341 178,96.5C 168.742,80.5525 155.576,76.3858 138.5,84C 133.64,87.7164 129.973,92.3831 127.5,98C 109.17,98.4999 90.8364,98.6666 72.5,98.5C 72.8119,86.4197 72.4786,74.4197 71.5,62.5C 73.8333,62.5 76.1667,62.5 78.5,62.5C 81.6981,63.0356 84.3647,62.369 86.5,60.5C 86.8333,59.5 87.5,58.8333 88.5,58.5C 90.2624,57.7377 91.2624,56.4044 91.5,54.5C 93.5,51.8333 95.8333,49.5 98.5,47.5C 101.089,46.5806 103.089,44.914 104.5,42.5C 111.13,36.6836 118.796,32.6836 127.5,30.5C 130.152,30.5905 132.485,29.9238 134.5,28.5C 164.691,22.0085 190.691,29.6751 212.5,51.5 Z"/></g>
<g><path style="opacity:1" fill="#bbaaf5" d="M 134.5,28.5 C 132.485,29.9238 130.152,30.5905 127.5,30.5C 129.515,29.0762 131.848,28.4095 134.5,28.5 Z"/></g>
<g><path style="opacity:1" fill="#fefffe" d="M 384.5,43.5 C 397.325,42.2733 407.825,46.6066 416,56.5C 416.483,57.448 416.649,58.448 416.5,59.5C 436.733,55.275 456.733,50.1083 476.5,44C 480.167,43.3333 483.833,43.3333 487.5,44C 488.667,45.1667 489.833,46.3333 491,47.5C 507.952,39.7382 522.619,42.7382 535,56.5C 538.289,64.807 538.289,73.1403 535,81.5C 529.656,91.5256 523.323,100.859 516,109.5C 509.321,115.569 502.821,121.736 496.5,128C 492.299,128.922 488.299,128.422 484.5,126.5C 483.728,120.918 482.728,115.418 481.5,110C 484.471,93.9464 484.971,77.7797 483,61.5C 482.586,61.0426 482.086,60.7093 481.5,60.5C 478.342,63.4194 474.676,64.586 470.5,64C 467.833,61.3333 467.833,58.6667 470.5,56C 465.781,56.1252 461.281,57.2918 457,59.5C 454.833,74.6684 452.666,89.835 450.5,105C 451.054,107.824 451.554,110.657 452,113.5C 455.998,116.49 456.498,119.99 453.5,124C 447.676,125.507 444.176,123.341 443,117.5C 442.889,99.2134 444.389,81.0468 447.5,63C 447.167,62.5 446.833,62 446.5,61.5C 437.672,63.8315 429.006,66.6648 420.5,70C 414.146,85.6925 405.313,99.8592 394,112.5C 388.13,117.337 382.63,122.504 377.5,128C 373.229,129.008 369.229,128.508 365.5,126.5C 364.407,120.852 363.407,115.185 362.5,109.5C 365.164,93.8811 365.664,78.2144 364,62.5C 363.692,61.6919 363.192,61.0253 362.5,60.5C 358.626,64.0939 354.459,64.7606 350,62.5C 349.333,60.8333 349.333,59.1667 350,57.5C 360.394,49.9829 371.894,45.3163 384.5,43.5 Z M 385.5,51.5 C 409.499,52.1647 415.999,63.1647 405,84.5C 398.635,94.5382 391.135,103.705 382.5,112C 379.415,113.96 376.248,115.793 373,117.5C 373.819,96.7702 373.652,76.1035 372.5,55.5C 377.049,54.5368 381.383,53.2035 385.5,51.5 Z M 504.5,51.5 C 526.457,51.2569 533.623,61.2569 526,81.5C 518.125,96.5423 506.958,108.542 492.5,117.5C 492.319,97.1668 492.152,76.8335 492,56.5C 496.169,54.5953 500.336,52.9286 504.5,51.5 Z"/></g>
<g><path style="opacity:1" fill="#fefefe" d="M 71.5,62.5 C 72.4786,74.4197 72.8119,86.4197 72.5,98.5C 90.8364,98.6666 109.17,98.4999 127.5,98C 129.973,92.3831 133.64,87.7164 138.5,84C 155.576,76.3858 168.742,80.5525 178,96.5C 182.299,109.341 179.465,120.174 169.5,129C 151.959,139.044 137.959,135.377 127.5,118C 109.183,116.881 90.8498,116.381 72.5,116.5C 72.6105,128.516 72.2771,140.516 71.5,152.5C 68.9289,164.551 61.4289,170.885 49,171.5C 41.0774,171.256 34.7441,167.923 30,161.5C 14.4317,164.309 4.26499,158.309 -0.5,143.5C -0.5,119.167 -0.5,94.8333 -0.5,70.5C 4.88514,56.4616 15.2185,50.6283 30.5,53C 37.4764,45.1206 46.1431,42.4539 56.5,45C 65.2939,47.6243 70.2939,53.4576 71.5,62.5 Z M 47.5,63.5 C 49.1439,63.2865 50.6439,63.6198 52,64.5C 52.3058,79.0079 52.8058,93.5079 53.5,108C 52.8097,122.159 52.3097,136.325 52,150.5C 50.3333,151.833 48.6667,151.833 47,150.5C 45.422,124.86 45.0886,99.1929 46,73.5C 46.2485,70.0806 46.7485,66.7473 47.5,63.5 Z M 20.5,72.5 C 22.1439,72.2865 23.6439,72.6198 25,73.5C 25.3398,84.8412 25.8398,96.1745 26.5,107.5C 25.8398,118.825 25.3398,130.159 25,141.5C 23.3333,142.833 21.6667,142.833 20,141.5C 17.8484,118.422 18.015,95.4225 20.5,72.5 Z M 149.5,99.5 C 160.593,99.7508 163.26,104.584 157.5,114C 150.857,116.679 146.523,114.512 144.5,107.5C 145.371,104.304 147.038,101.637 149.5,99.5 Z"/></g>
<g><path style="opacity:1" fill="#bfaef5" d="M 104.5,42.5 C 103.089,44.914 101.089,46.5806 98.5,47.5C 99.9108,45.086 101.911,43.4194 104.5,42.5 Z"/></g>
<g><path style="opacity:1" fill="#fefffe" d="M 240.5,45.5 C 245.393,49.5964 249.059,54.7631 251.5,61C 251.241,62.2613 250.574,63.2613 249.5,64C 245.081,66.6268 240.581,69.1268 236,71.5C 232.024,66.8514 228.857,61.6847 226.5,56C 231.025,52.2454 235.692,48.7454 240.5,45.5 Z"/></g>
<g><path style="opacity:1" fill="#fefffe" d="M 302.5,51.5 C 306.962,50.8035 309.629,52.6368 310.5,57C 307.499,74.0035 304.499,91.0035 301.5,108C 303.401,119.426 309.734,122.759 320.5,118C 330.68,112.413 340.346,106.079 349.5,99C 351.677,97.7978 354.011,97.2978 356.5,97.5C 357.125,100.97 356.125,103.804 353.5,106C 343.36,114.574 332.36,121.907 320.5,128C 309.442,131.757 300.608,128.924 294,119.5C 293.144,115.376 292.644,111.21 292.5,107C 296.229,88.5819 299.562,70.0819 302.5,51.5 Z"/></g>
<g><path style="opacity:1" fill="#d3c7f9" d="M 212.5,51.5 C 213.906,51.9731 214.573,52.9731 214.5,54.5C 213.094,54.0269 212.427,53.0269 212.5,51.5 Z"/></g>
<g><path style="opacity:1" fill="#c9bbf7" d="M 91.5,54.5 C 91.2624,56.4044 90.2624,57.7377 88.5,58.5C 88.7376,56.5956 89.7376,55.2623 91.5,54.5 Z"/></g>
<g><path style="opacity:1" fill="#ded5fa" d="M 86.5,60.5 C 84.3647,62.369 81.6981,63.0356 78.5,62.5C 81.0529,61.7451 83.7196,61.0784 86.5,60.5 Z"/></g>
<g><path style="opacity:1" fill="#c8baf7" d="M 218.5,59.5 C 219.906,59.9731 220.573,60.9731 220.5,62.5C 219.094,62.0269 218.427,61.0269 218.5,59.5 Z"/></g>
<g><path style="opacity:1" fill="#cec3f8" d="M 220.5,62.5 C 221.906,62.9731 222.573,63.9731 222.5,65.5C 221.094,65.0269 220.427,64.0269 220.5,62.5 Z"/></g>
<g><path style="opacity:1" fill="#fefffe" d="M 722.5,74.5 C 722.5,76.1667 722.5,77.8333 722.5,79.5C 711.523,80.7694 701.023,83.7694 691,88.5C 690.333,91.8333 690.333,95.1667 691,98.5C 693.333,102.833 695.667,107.167 698,111.5C 699.725,118.144 697.558,120.311 691.5,118C 689.595,116.185 687.928,114.185 686.5,112C 680.937,111.564 675.437,112.064 670,113.5C 662.194,112.766 655.861,109.433 651,103.5C 649,98.1667 649,92.8333 651,87.5C 655.79,78.0476 662.623,70.5476 671.5,65C 674.817,64.5017 678.15,64.335 681.5,64.5C 682.014,66.5116 682.18,68.5116 682,70.5C 669.872,74.6277 661.706,82.7943 657.5,95C 659.066,101.798 663.399,105.298 670.5,105.5C 675.132,104.685 679.799,104.352 684.5,104.5C 684.097,99.8038 683.43,95.1372 682.5,90.5C 677.316,92.6311 671.983,93.7978 666.5,94C 665.202,91.5008 665.536,89.1675 667.5,87C 683.931,80.1424 700.931,75.3091 718.5,72.5C 719.86,73.1799 721.193,73.8466 722.5,74.5 Z"/></g>
<g><path style="opacity:1" fill="#fefffe" d="M 628.5,68.5 C 639.329,65.9873 642.329,69.6539 637.5,79.5C 639.872,91.1413 640.039,102.808 638,114.5C 633.175,119.943 627.675,120.777 621.5,117C 614.239,111.972 608.739,105.472 605,97.5C 600.814,105.589 600.981,113.423 605.5,121C 602.871,124.112 599.538,125.112 595.5,124C 593.996,122.509 593.163,120.676 593,118.5C 592.235,109.217 593.568,100.217 597,91.5C 598.082,84.5123 599.082,77.5123 600,70.5C 602.466,69.2117 604.966,69.2117 607.5,70.5C 609.371,82.9579 613.871,94.2912 621,104.5C 623.371,107.206 626.037,109.539 629,111.5C 630.117,110.051 630.784,108.384 631,106.5C 631.167,103.167 631.333,99.8333 631.5,96.5C 631.106,86.7318 630.106,77.3985 628.5,68.5 Z"/></g>
<g><path style="opacity:1" fill="#fefffe" d="M 550.5,74.5 C 553.056,74.1322 555.056,74.9655 556.5,77C 554.319,83.3757 552.652,89.8757 551.5,96.5C 551.272,101.468 553.272,102.968 557.5,101C 564.391,95.055 568.557,87.555 570,78.5C 572.475,75.4764 575.475,74.8097 579,76.5C 580.344,83.9062 581.177,91.2395 581.5,98.5C 589.075,101.447 589.408,104.947 582.5,109C 580.167,109.667 577.833,109.667 575.5,109C 573.168,105.847 571.501,102.347 570.5,98.5C 566.272,103.897 561.272,108.397 555.5,112C 551.88,112.841 548.546,112.174 545.5,110C 542.424,103.705 541.924,97.2049 544,90.5C 545.906,85.0275 548.072,79.6942 550.5,74.5 Z"/></g>
<g><path style="opacity:1" fill="#fefffe" d="M 241.5,98.5 C 248.167,98.5 254.833,98.5 261.5,98.5C 261.5,104.5 261.5,110.5 261.5,116.5C 254.833,116.5 248.167,116.5 241.5,116.5C 241.5,110.5 241.5,104.5 241.5,98.5 Z"/></g>
<g><path style="opacity:1" fill="#fefffe" d="M 235.5,144.5 C 241.348,147.254 246.681,150.754 251.5,155C 248.967,160.568 245.8,165.735 242,170.5C 237.419,168.127 232.919,165.627 228.5,163C 227.426,162.261 226.759,161.261 226.5,160C 229.126,154.576 232.126,149.41 235.5,144.5 Z"/></g>
<g><path style="opacity:1" fill="#d3c7f9" d="M 97.5,167.5 C 99.0269,167.427 100.027,168.094 100.5,169.5C 98.9731,169.573 97.9731,168.906 97.5,167.5 Z"/></g>
<g><path style="opacity:1" fill="#d8cdf9" d="M 108.5,175.5 C 110.027,175.427 111.027,176.094 111.5,177.5C 109.973,177.573 108.973,176.906 108.5,175.5 Z"/></g>
<g><path style="opacity:1" fill="#fefffe" d="M 100.5,180.5 C 106.409,183.277 111.742,186.777 116.5,191C 113.967,196.568 110.8,201.735 107,206.5C 101.201,204.025 96.0345,200.692 91.5,196.5C 94.0054,190.816 97.0054,185.482 100.5,180.5 Z"/></g>
<g><path style="opacity:1" fill="#fefffe" d="M 204.5,180.5 C 209.393,184.596 213.059,189.763 215.5,196C 215.241,197.261 214.574,198.261 213.5,199C 209.081,201.627 204.581,204.127 200,206.5C 196.024,201.851 192.857,196.685 190.5,191C 195.025,187.245 199.692,183.745 204.5,180.5 Z"/></g>
<g><path style="opacity:1" fill="#c7b8f7" d="M 124.5,183.5 C 127.152,183.41 129.485,184.076 131.5,185.5C 128.848,185.59 126.515,184.924 124.5,183.5 Z"/></g>
<g><path style="opacity:1" fill="#fefffe" d="M 162.5,215.5 C 156.167,215.5 149.833,215.5 143.5,215.5C 143.5,209.5 143.5,203.5 143.5,197.5C 149.833,197.5 156.167,197.5 162.5,197.5C 162.5,203.5 162.5,209.5 162.5,215.5 Z"/></g>
</svg>
